<svg xmlns="http://www.w3.org/2000/svg" width="97.185" height="97.185" viewBox="0 0 97.185 97.185">
  <g id="exchange" transform="translate(-0.001 -0.501)">
    <path id="Path_13563" data-name="Path 13563" d="M96.2,21.519,58.352.735a1.9,1.9,0,0,0-1.827,0L42.258,8.568a1.9,1.9,0,0,0-.815.448l-22.768,12.5a1.9,1.9,0,0,0-.985,1.664V48.32a25.287,25.287,0,0,0-15.127,35.2,1.9,1.9,0,0,0,3.411-1.667,21.46,21.46,0,1,1,9.864,9.864,1.9,1.9,0,0,0-1.666,3.411A25.3,25.3,0,0,0,48.346,82.706L56.525,87.2a1.9,1.9,0,0,0,1.827,0L96.2,66.414a1.9,1.9,0,0,0,.985-1.664V51.559a1.9,1.9,0,1,0-3.8,0V63.627l-34.048,18.7V45.086l11.237-6.17V48.7a1.9,1.9,0,0,0,2.813,1.663L81.5,45.9a1.9,1.9,0,0,0,.982-1.662V32.378l10.9-5.987v9.984a1.9,1.9,0,1,0,3.8,0V23.183a1.9,1.9,0,0,0-.985-1.664ZM57.438,4.564,91.345,23.183l-10.7,5.873L46.742,10.437Zm0,37.237L23.532,23.183l11.088-6.089L68.527,35.712ZM72.47,33.547,38.563,14.929,42.8,12.6,76.706,31.221ZM43.121,54.567a25.091,25.091,0,0,0-17.859-7.4,25.6,25.6,0,0,0-3.776.279V26.39l34.06,18.7V82.329l-5.912-3.246a25.379,25.379,0,0,0,.883-6.658,25.09,25.09,0,0,0-7.4-17.858ZM78.69,43.112l-4.315,2.375V36.831l4.315-2.369Zm0,0" transform="translate(0)" fill="#231f20"/>
    <path id="Path_13564" data-name="Path 13564" d="M493.9,219.441a1.9,1.9,0,1,0,1.342.556A1.913,1.913,0,0,0,493.9,219.441Zm0,0" transform="translate(-398.61 -177.382)" fill="#231f20"/>
    <path id="Path_13565" data-name="Path 13565" d="M71.913,334.328a1.9,1.9,0,0,0,1.342-3.24l-1.315-1.315H83.159a4.935,4.935,0,1,1,0,9.87H76.512a1.9,1.9,0,1,0,0,3.8h6.647a8.731,8.731,0,1,0,0-17.462H71.941l1.315-1.315a1.9,1.9,0,1,0-2.684-2.685l-4.556,4.556a1.9,1.9,0,0,0,0,2.685l4.556,4.555A1.892,1.892,0,0,0,71.913,334.328Zm0,0" transform="translate(-53.034 -260.005)" fill="#fbb616"/>
    <path id="Path_13566" data-name="Path 13566" d="M37.967,460.231a1.889,1.889,0,0,1-1.45-.675l0,0a1.9,1.9,0,1,1,1.454.68Zm0,0" transform="translate(-29.221 -369.388)" fill="#231f20"/>
  </g>
</svg>
