<svg xmlns="http://www.w3.org/2000/svg" width="642.879" height="626.383" viewBox="0 0 642.879 626.383"><defs><style>.a{fill:#ffebc5;}.b{fill:#f6d594;}.c{fill:#ebebeb;}.d{fill:#fda300;}.e{fill:#fff;}.f{fill:#37474f;}.g{fill:#263238;}.h{fill:#455a64;}.i{fill:#f6d18d;opacity:0.6;}.j{fill:#f0f0f0;}.k{fill:#ffa400;}.l{fill:#27debf;}.m{fill:#fcd58f;}.n{opacity:0.15;}.o{fill:#e19000;}.p{fill:#ffb837;}.q{opacity:0.3;}.r{fill:#db8d00;}.s{opacity:0.1;}.t{fill:#b16668;}.u{fill:#ef9a00;opacity:0.96;}.v{fill:#9a4a4d;}</style></defs><g transform="translate(-20.787 -32.007)"><g transform="translate(20.787 278.998)"><path class="a" d="M114.936,533.332c125.53,74.08,329.055,74.082,454.583,0s125.53-194.19,0-268.271-329.055-74.082-454.585,0S-10.6,459.251,114.936,533.332Z" transform="translate(-20.787 -209.501)"/></g><g transform="translate(474.655 516.292)"><ellipse class="b" cx="61.493" cy="35.503" rx="61.493" ry="35.503"/></g><g transform="translate(448.298 88.98)"><path class="c" d="M364.765,78.777l10.672,6.162a12.891,12.891,0,0,1-.09-1.412V80.434c0-5.5,3.863-7.731,8.628-4.98a16.7,16.7,0,0,1,5.14,4.944c.781-6.917,6.209-9.495,12.8-5.689,7.128,4.116,12.905,14.123,12.905,22.354v4.625a12.173,12.173,0,0,1-1.092,5.357l8.864,5.117a10.58,10.58,0,0,1,4.784,8.289c0,3.052-2.142,4.287-4.784,2.762L364.765,89.828a10.577,10.577,0,0,1-4.784-8.288C359.981,78.489,362.123,77.252,364.765,78.777Z" transform="translate(-315.488 -72.949)"/><path class="c" d="M331.618,100.719l8.053,4.651a9.985,9.985,0,0,1-.067-1.067V101.97c0-4.152,2.915-5.835,6.511-3.76a12.613,12.613,0,0,1,3.88,3.732c.589-5.221,4.685-7.165,9.66-4.293,5.38,3.106,9.741,10.659,9.741,16.87v3.491a9.189,9.189,0,0,1-.825,4.044l6.689,3.862a7.984,7.984,0,0,1,3.611,6.255c0,2.3-1.617,3.237-3.611,2.086l-43.642-25.2a7.984,7.984,0,0,1-3.611-6.256C328.007,100.5,329.624,99.568,331.618,100.719Z" transform="translate(-328.007 -63.798)"/></g><g transform="translate(37.594 312.394)"><g transform="translate(0)"><path class="d" d="M89.934,310.206c-.788.427-15.336,4.557-20.727-2.562s3.554-18.215-1.5-22.305-19.223.024-22.633-8.593,6.7-12.307,1.017-20.978c-3.578-5.462-12.365-8.52-13.139-13.569-1.294-8.438,12.69-12.315,24.648-4.35s19.191,4.318,22.986,3.782,11.976.644,11.713,13.966S89.934,310.206,89.934,310.206Z" transform="translate(-32.865 -233.5)"/><g transform="translate(7.849 5.278)"><path class="e" d="M88.687,289.777a.794.794,0,0,1-.782-.664c-4.163-25.277-33.549-45.851-48.827-50.267a.792.792,0,1,1,.44-1.522c15.624,4.516,45.677,25.6,49.952,51.532a.794.794,0,0,1-.654.911A.814.814,0,0,1,88.687,289.777Z" transform="translate(-38.505 -237.293)"/></g><g transform="translate(22.592 30.509)"><path class="e" d="M49.894,261.52a.792.792,0,0,1-.406-1.474c.476-.284,11.781-6.891,22.92-3.8a.792.792,0,1,1-.424,1.526c-10.478-2.908-21.576,3.572-21.686,3.636A.8.8,0,0,1,49.894,261.52Z" transform="translate(-49.1 -255.425)"/></g></g></g><g transform="translate(88.998 32.007)"><path class="f" d="M77.929,336.348c0,3.6,2.7,8.083,6.027,10.005l168.829,97.474a13.318,13.318,0,0,0,12.052,0L495.844,310.456c3.327-1.922,6.025-6.4,6.025-10.007s-2.7-8.083-6.025-10.005L327.013,192.971a13.315,13.315,0,0,0-12.051,0L83.954,326.342C80.626,328.264,77.929,332.743,77.929,336.348Z" transform="translate(-66.624 30.453)"/><path class="g" d="M258.814,394.183v13.039a12.29,12.29,0,0,1-6.025-1.433L83.952,308.311c-3.324-1.92-6.025-6.4-6.025-10.005,0-3.381,2.38-7.528,5.413-9.616-2.7,1.934-2.489,4.773.612,6.568l168.836,97.478A12.3,12.3,0,0,0,258.814,394.183Z" transform="translate(-66.625 68.496)"/><path class="h" d="M75.457,389.018c-3.121-1.8-5.652-6.379-5.652-10.221V177.322a13.316,13.316,0,0,1,6.025-10.437L306.837,33.514c3.327-1.922,8.557-2.018,11.678-.216s5.654,6.379,5.654,10.221V244.994a13.322,13.322,0,0,1-6.025,10.437L87.135,388.8C83.807,390.724,78.579,390.82,75.457,389.018Z" transform="translate(-69.805 -32.007)"/><path class="g" d="M86.422,349.947c-3.324,1.559-8.056,1.531-10.964-.153-3.118-1.8-5.651-6.373-5.651-10.214V138.1a12.173,12.173,0,0,1,1.767-5.928l11.3,6.512v.014a12.352,12.352,0,0,0-1.767,5.928V346.106C81.106,349.669,83.43,351.269,86.422,349.947Z" transform="translate(-69.804 7.211)"/><path class="f" d="M77.929,181.819V383.294c0,3.842,2.7,5.4,6.025,3.479L314.962,253.4a13.322,13.322,0,0,0,6.025-10.437V41.49c0-3.842-2.7-5.4-6.025-3.479L83.954,171.383A13.318,13.318,0,0,0,77.929,181.819Z" transform="translate(-66.624 -29.979)"/><path class="h" d="M82.961,333.3l168.831,97.474a13.318,13.318,0,0,0,12.052,0L494.851,297.4c3.329-1.922,3.329-5.036,0-6.958L326.02,192.971a13.315,13.315,0,0,0-12.051,0L82.961,326.342C79.633,328.264,79.633,331.378,82.961,333.3Z" transform="translate(-65.631 30.453)"/><path class="e" d="M85.605,177.97,308.326,49.416c2-1.152,3.615-.218,3.615,2.087V225.911a7.989,7.989,0,0,1-3.615,6.262L85.605,360.726c-2,1.152-3.615.217-3.615-2.087V184.232A7.994,7.994,0,0,1,85.605,177.97Z" transform="translate(-65.034 -25.384)"/><path class="i" d="M85.605,177.97,308.326,49.416c2-1.152,3.615-.218,3.615,2.087V225.911a7.989,7.989,0,0,1-3.615,6.262L85.605,360.726c-2,1.152-3.615.217-3.615-2.087V184.232A7.994,7.994,0,0,1,85.605,177.97Z" transform="translate(-65.034 -25.384)"/><g transform="translate(111.247 140.092)"><path class="j" d="M167.294,134.148c5.929-3.425,10.737-.648,10.737,6.2s-4.808,15.173-10.737,18.6-10.737.648-10.737-6.2S161.365,137.571,167.294,134.148Z" transform="translate(-147.085 -132.681)"/><path class="j" d="M191.119,163.692c0-11.249-7.9-16.244-17.639-10.619l-6.091,3.516c-9.741,5.625-17.639,19.3-17.639,30.553v3.027L191.119,166.3Z" transform="translate(-149.75 -125.606)"/></g><g transform="translate(96.096 182.877)"><path class="j" d="M216.3,164.285c-.394-.907-1.394-1.136-2.524-.488l-72.246,41.685a5.923,5.923,0,0,0-2.669,4.63v8.5c0,1.446.863,2.154,2.03,1.826.121-.035.191-.06.191-.06a3.19,3.19,0,0,0,.448-.22l72.246-41.685a5.9,5.9,0,0,0,2.673-4.63v-8.5A3.327,3.327,0,0,0,216.3,164.285Z" transform="translate(-138.862 -163.428)"/><g transform="translate(6.661 8.833)"><path class="k" d="M146.187,194.5c1.4-.81,2.537-.153,2.537,1.465a5.611,5.611,0,0,1-2.537,4.4c-1.4.809-2.538.153-2.538-1.465A5.608,5.608,0,0,1,146.187,194.5Z" transform="translate(-143.649 -160.229)"/><path class="k" d="M152.22,191.021c1.4-.81,2.537-.153,2.537,1.465a5.611,5.611,0,0,1-2.537,4.4c-1.4.808-2.538.153-2.538-1.465A5.6,5.6,0,0,1,152.22,191.021Z" transform="translate(-141.287 -161.592)"/><path class="k" d="M158.253,187.538c1.4-.81,2.537-.154,2.537,1.465a5.606,5.606,0,0,1-2.537,4.395c-1.4.81-2.538.154-2.538-1.465A5.6,5.6,0,0,1,158.253,187.538Z" transform="translate(-138.925 -162.956)"/><path class="k" d="M164.286,184.053c1.4-.808,2.537-.153,2.537,1.467a5.606,5.606,0,0,1-2.537,4.395c-1.4.81-2.538.153-2.538-1.465A5.609,5.609,0,0,1,164.286,184.053Z" transform="translate(-136.562 -164.32)"/><path class="k" d="M170.319,180.57c1.4-.809,2.537-.153,2.537,1.465a5.607,5.607,0,0,1-2.537,4.4c-1.4.81-2.538.153-2.538-1.465A5.609,5.609,0,0,1,170.319,180.57Z" transform="translate(-134.2 -165.684)"/><path class="k" d="M176.351,177.087c1.4-.809,2.538-.153,2.538,1.465a5.606,5.606,0,0,1-2.538,4.4c-1.4.81-2.537.153-2.537-1.465A5.611,5.611,0,0,1,176.351,177.087Z" transform="translate(-131.838 -167.048)"/><path class="k" d="M182.384,173.6c1.4-.809,2.538-.153,2.538,1.465a5.612,5.612,0,0,1-2.538,4.4c-1.4.81-2.537.153-2.537-1.465A5.611,5.611,0,0,1,182.384,173.6Z" transform="translate(-129.476 -168.411)"/><path class="k" d="M188.417,170.121c1.4-.809,2.538-.153,2.538,1.465a5.608,5.608,0,0,1-2.538,4.4c-1.4.809-2.537.153-2.537-1.465A5.609,5.609,0,0,1,188.417,170.121Z" transform="translate(-127.114 -169.775)"/></g></g><path class="f" d="M96.693,324.7,311.118,200.9a6.662,6.662,0,0,1,6.025,0l10.967,6.333c1.664.96,1.664,2.517,0,3.478L113.653,334.487a6.662,6.662,0,0,1-6.025,0l-10.935-6.313C95.029,327.213,95.029,325.656,96.693,324.7Z" transform="translate(-59.766 33.84)"/><path class="g" d="M117,336.422l214.422-123.8a6.662,6.662,0,0,1,6.025,0l67.458,38.948c1.664.962,1.663,2.519,0,3.479L190.733,378.678a6.69,6.69,0,0,1-6.032.008l-67.69-38.795C115.343,338.936,115.34,337.383,117,336.422Z" transform="translate(-51.812 38.43)"/><path class="h" d="M307.545,266.843l6.713-3.875c.285-.166.269-.443-.038-.619l-7.763-4.482a1.181,1.181,0,0,0-1.07-.021l-6.714,3.875c-.285.164-.269.441.039.618l7.762,4.482A1.188,1.188,0,0,0,307.545,266.843Zm-13.249-15.4-6.714,3.877c-.284.164-.267.441.039.618l7.763,4.482a1.185,1.185,0,0,0,1.07.022l6.714-3.877c.285-.164.269-.441-.038-.618l-7.763-4.482A1.188,1.188,0,0,0,294.3,251.441Zm-21.69,12.524-11.362,6.56c-.284.164-.267.441.039.618l7.763,4.481a1.181,1.181,0,0,0,1.07.022l11.362-6.558c.285-.166.269-.442-.039-.619l-7.762-4.482A1.184,1.184,0,0,0,272.606,263.965Zm11.878-6.859-6.714,3.877c-.284.164-.269.441.039.618l7.763,4.482a1.185,1.185,0,0,0,1.07.022l6.713-3.875c.285-.166.27-.443-.038-.619l-7.763-4.481A1.181,1.181,0,0,0,284.484,257.106Zm-26.338,15.207-6.714,3.875c-.285.166-.267.443.038.619l7.765,4.482a1.185,1.185,0,0,0,1.07.022l6.714-3.877c.284-.164.267-.441-.039-.618l-7.763-4.482A1.185,1.185,0,0,0,258.147,272.313Zm-9.813,5.665-6.713,3.877c-.285.164-.269.441.038.618l7.763,4.481a1.18,1.18,0,0,0,1.072.022l6.713-3.875c.285-.166.269-.441-.038-.618L249.4,278A1.188,1.188,0,0,0,248.333,277.978ZM278.869,296.2l6.714-3.877c.284-.164.269-.441-.039-.618l-7.762-4.482a1.184,1.184,0,0,0-1.072-.021L270,291.082c-.285.164-.269.441.038.618l7.763,4.482A1.185,1.185,0,0,0,278.869,296.2Zm-9.812,5.665,6.714-3.875c.285-.166.267-.443-.039-.619l-7.762-4.482a1.188,1.188,0,0,0-1.071-.022l-6.714,3.877c-.285.164-.267.441.038.618l7.763,4.482A1.188,1.188,0,0,0,269.058,301.87Zm-9.812,5.665,6.713-3.877c.285-.164.269-.44-.038-.618l-7.763-4.482a1.185,1.185,0,0,0-1.07-.022l-6.714,3.877c-.285.166-.269.441.039.618l7.762,4.482A1.188,1.188,0,0,0,259.246,307.535Zm-9.813,5.665,6.714-3.875c.285-.166.269-.443-.039-.619l-7.762-4.481a1.184,1.184,0,0,0-1.072-.022l-6.713,3.875c-.285.164-.269.441.038.619l7.763,4.481A1.181,1.181,0,0,0,249.433,313.2Zm48.3-40.692,6.713-3.875c.285-.166.269-.443-.038-.619l-7.763-4.481a1.181,1.181,0,0,0-1.07-.022l-6.714,3.875c-.285.166-.269.441.038.619l7.763,4.482A1.188,1.188,0,0,0,297.733,272.508Zm-9.051,18.032,14.976-8.647c.285-.164.269-.441-.038-.618L284.767,270.39a1.185,1.185,0,0,0-1.07-.022l-7.747,4.472c-.285.164-.269.441.038.618l9.982,5.762c.306.177.323.454.038.619l-6.2,3.578c-.285.164-.269.441.038.618l7.763,4.482A1.188,1.188,0,0,0,288.683,290.54Zm-50.161-6.9-6.714,3.877c-.284.164-.267.441.039.618l7.763,4.482a1.185,1.185,0,0,0,1.07.022l6.714-3.877c.285-.164.269-.441-.039-.618l-7.762-4.482A1.188,1.188,0,0,0,238.522,283.643Zm-9.812,5.665L222,293.185c-.285.164-.269.441.039.618l7.762,4.482a1.188,1.188,0,0,0,1.072.022l6.713-3.877c.287-.164.269-.441-.038-.618l-7.763-4.482A1.185,1.185,0,0,0,228.71,289.308Zm-49.033,63.525a1.185,1.185,0,0,0,1.07.022l6.714-3.877c.285-.164.269-.443-.039-.618l-7.762-4.482a1.188,1.188,0,0,0-1.071-.022l-6.713,3.875c-.285.166-.269.443.038.619Zm-29.466-18.2L143.5,338.5c-.285.164-.269.441.038.619L151.3,343.6a1.184,1.184,0,0,0,1.072.022l6.713-3.875c.285-.166.269-.443-.038-.619l-7.763-4.481A1.184,1.184,0,0,0,150.211,334.629ZM166,347.921a1.188,1.188,0,0,0,1.072.022l6.714-3.877c.284-.164.267-.441-.039-.618l-7.762-4.482a1.188,1.188,0,0,0-1.071-.022l-6.714,3.877c-.285.164-.267.441.039.618Zm31,8.355,6.714-3.875c.285-.166.267-.443-.038-.619l-7.763-4.482a1.188,1.188,0,0,0-1.071-.021l-6.714,3.875c-.284.164-.267.443.039.619l7.762,4.481A1.184,1.184,0,0,0,197,356.276Zm-10.883,5.643a1.184,1.184,0,0,0,1.072.022l6.713-3.875c.285-.166.269-.441-.038-.618l-7.763-4.482a1.181,1.181,0,0,0-1.07-.022l-6.714,3.875c-.285.166-.269.441.039.618Zm-26.094-32.955-6.714,3.875c-.285.166-.267.441.039.618l7.762,4.482a1.188,1.188,0,0,0,1.071.022l6.713-3.875c.287-.166.269-.441-.038-.619l-7.762-4.481A1.179,1.179,0,0,0,160.024,328.964Zm49.06-28.326-6.714,3.877c-.284.164-.267.441.039.618l7.763,4.482a1.185,1.185,0,0,0,1.07.022l6.714-3.877c.285-.164.267-.441-.038-.618l-7.763-4.482A1.188,1.188,0,0,0,209.085,300.638ZM169.836,323.3l-6.713,3.875c-.285.164-.269.443.038.618l7.762,4.482a1.184,1.184,0,0,0,1.071.022l6.714-3.875c.285-.166.267-.443-.039-.619l-7.762-4.482A1.188,1.188,0,0,0,169.836,323.3Zm49.06-28.326-6.713,3.877c-.285.164-.269.441.039.618l7.762,4.482a1.188,1.188,0,0,0,1.071.022l6.713-3.877c.285-.164.269-.441-.038-.618L219.968,295A1.188,1.188,0,0,0,218.9,294.973ZM199.273,306.3l-6.713,3.875c-.287.164-.27.441.038.618l7.763,4.482a1.185,1.185,0,0,0,1.07.022l6.714-3.877c.285-.164.269-.441-.039-.618l-7.763-4.482A1.181,1.181,0,0,0,199.273,306.3Zm-9.812,5.664-6.714,3.877c-.285.164-.269.441.038.618l7.763,4.482a1.188,1.188,0,0,0,1.071.022l6.714-3.875c.284-.166.267-.443-.039-.619l-7.762-4.482A1.188,1.188,0,0,0,189.461,311.968Zm-9.812,5.666-6.714,3.875c-.285.164-.269.441.038.618l7.763,4.482a1.188,1.188,0,0,0,1.071.022l6.713-3.875c.285-.166.269-.443-.038-.619l-7.763-4.482A1.181,1.181,0,0,0,179.649,317.634Zm50.16,6.9,6.713-3.875c.285-.164.269-.442-.038-.618l-7.763-4.482a1.181,1.181,0,0,0-1.07-.022l-6.714,3.875c-.285.166-.269.441.039.619l7.762,4.482A1.184,1.184,0,0,0,229.809,324.53Zm86.177-85.611-6.713,3.877c-.285.164-.269.441.038.618l7.763,4.482a1.188,1.188,0,0,0,1.071.022l6.713-3.877c.285-.164.269-.441-.038-.618l-7.763-4.482A1.188,1.188,0,0,0,315.986,238.919Zm-11.878,6.858-6.713,3.877c-.285.164-.269.441.038.618l7.763,4.482a1.185,1.185,0,0,0,1.07.022l6.714-3.877c.285-.164.269-.441-.038-.618l-7.763-4.482A1.188,1.188,0,0,0,304.108,245.776Zm21.69-12.523-6.713,3.877c-.285.164-.269.441.038.618l7.763,4.482a1.181,1.181,0,0,0,1.07.021l6.714-3.875c.285-.164.269-.441-.038-.618l-7.763-4.482A1.188,1.188,0,0,0,325.8,233.254Zm-50.789,52.374,6.714-3.875c.285-.166.269-.443-.039-.619l-7.762-4.482a1.188,1.188,0,0,0-1.072-.022l-6.713,3.877c-.285.164-.269.441.038.618l7.763,4.482A1.185,1.185,0,0,0,275.009,285.627Zm61.672-58.016a1.185,1.185,0,0,0-1.07-.022l-6.713,3.875c-.285.166-.269.443.038.619l7.763,4.482a1.185,1.185,0,0,0,1.07.022l6.713-3.877c.285-.164.27-.441-.038-.618Zm-97.06,91.253,6.714-3.875c.285-.166.267-.443-.039-.619l-7.762-4.482a1.188,1.188,0,0,0-1.071-.022l-6.714,3.877c-.285.166-.267.443.039.618l7.762,4.482A1.184,1.184,0,0,0,239.621,318.865Zm120.328-69.472,6.714-3.875c.285-.166.267-.443-.039-.619l-7.763-4.482a1.181,1.181,0,0,0-1.07-.021l-6.714,3.875c-.284.164-.267.441.039.619l7.762,4.481A1.188,1.188,0,0,0,359.949,249.393Zm-20.9-.738,6.713-3.877c.285-.164.269-.441-.039-.618l-7.762-4.482a1.188,1.188,0,0,0-1.071-.022l-6.713,3.877c-.285.164-.269.441.038.618l7.763,4.482A1.188,1.188,0,0,0,339.048,248.655Zm8.724-14.642a1.188,1.188,0,0,0-1.071-.022l-6.713,3.877c-.285.164-.269.441.038.618l7.763,4.482a1.185,1.185,0,0,0,1.07.022l6.714-3.877c.285-.164.269-.441-.038-.618Zm2.066-1.193,18.853,10.885a1.185,1.185,0,0,0,1.07.022l6.714-3.875c.285-.166.269-.443-.038-.619l-18.854-10.885a1.188,1.188,0,0,0-1.071-.022L349.8,232.2C349.514,232.367,349.531,232.644,349.838,232.821Zm-22.762,12.5-6.714,3.875c-.285.164-.269.441.039.618l7.763,4.482a1.185,1.185,0,0,0,1.07.022l6.714-3.877c.284-.164.269-.441-.039-.618l-7.762-4.482A1.184,1.184,0,0,0,327.077,245.323Zm-73.849,42.636-6.714,3.877c-.285.164-.269.441.039.618l7.762,4.482a1.188,1.188,0,0,0,1.071.022l6.713-3.875c.287-.166.269-.443-.038-.619l-7.763-4.482A1.185,1.185,0,0,0,253.227,287.958Zm95.84-32.923a1.185,1.185,0,0,0,1.07.022l6.714-3.875c.284-.166.269-.442-.039-.619l-7.763-4.482a1.185,1.185,0,0,0-1.07-.022l-6.714,3.877c-.285.164-.269.443.039.618Zm-86.028,27.259-6.714,3.875c-.285.164-.267.441.039.618l7.762,4.482a1.188,1.188,0,0,0,1.072.022l6.714-3.877c.285-.164.267-.441-.039-.618l-7.762-4.482A1.184,1.184,0,0,0,263.039,282.295Zm-73.55,64.874a1.184,1.184,0,0,0,1.072.021l6.713-3.875c.285-.164.269-.441-.038-.618l-7.763-4.482a1.185,1.185,0,0,0-1.07-.022l-6.714,3.877c-.285.164-.267.441.038.618Zm-14.76-13.889-6.713,3.877c-.285.164-.269.441.038.618l7.763,4.482a1.185,1.185,0,0,0,1.07.022L183.6,338.4c.285-.164.269-.441-.039-.618L175.8,333.3A1.188,1.188,0,0,0,174.729,333.28Zm25.643,8.245,6.713-3.875c.285-.164.269-.441-.038-.618l-7.763-4.482a1.184,1.184,0,0,0-1.071-.022L191.5,336.4c-.285.166-.269.443.039.619L199.3,341.5A1.184,1.184,0,0,0,200.372,341.524Zm9.812-5.664,6.714-3.877c.285-.164.269-.441-.038-.618l-7.765-4.482a1.185,1.185,0,0,0-1.07-.022l-6.714,3.875c-.284.166-.267.443.039.619l7.763,4.482A1.185,1.185,0,0,0,210.184,335.861ZM220,330.194l6.714-3.875c.285-.166.267-.441-.038-.619l-7.763-4.482a1.188,1.188,0,0,0-1.071-.021l-6.713,3.875c-.285.164-.269.443.038.618l7.763,4.482A1.181,1.181,0,0,0,220,330.194Zm-35.455-2.58-6.713,3.875c-.285.166-.269.443.038.619l7.763,4.481a1.179,1.179,0,0,0,1.071.022l6.713-3.875c.285-.164.269-.441-.038-.619l-7.763-4.481A1.188,1.188,0,0,0,184.541,327.615Zm9.813-5.665-6.714,3.875c-.285.166-.269.441.038.619l7.763,4.482a1.188,1.188,0,0,0,1.071.022l6.714-3.877c.284-.166.267-.441-.039-.618l-7.763-4.482A1.185,1.185,0,0,0,194.354,321.95ZM233.6,299.29l-6.714,3.875c-.285.166-.267.441.039.619l7.762,4.481a1.184,1.184,0,0,0,1.071.022l6.714-3.875c.285-.164.267-.443-.038-.619l-7.763-4.481A1.184,1.184,0,0,0,233.6,299.29Zm-9.812,5.665-6.714,3.875c-.285.164-.269.443.039.618l7.762,4.482a1.184,1.184,0,0,0,1.072.022l6.713-3.875c.285-.166.269-.441-.038-.619l-7.763-4.482A1.181,1.181,0,0,0,223.791,304.955Zm19.624-11.331L236.7,297.5c-.285.164-.269.441.038.618L244.5,302.6a1.181,1.181,0,0,0,1.07.022l6.714-3.877c.285-.164.269-.441-.039-.618l-7.762-4.482A1.188,1.188,0,0,0,243.414,293.623Zm-39.249,22.661-6.713,3.875c-.285.166-.269.443.038.618l7.763,4.482a1.181,1.181,0,0,0,1.07.022l6.714-3.875c.285-.166.269-.441-.039-.619l-7.762-4.481A1.184,1.184,0,0,0,204.166,316.285Zm9.812-5.665-6.713,3.875c-.285.166-.269.443.038.619l7.763,4.482a1.185,1.185,0,0,0,1.07.022l6.714-3.877c.285-.166.269-.443-.038-.618l-7.763-4.482A1.188,1.188,0,0,0,213.977,310.62Zm-7.164,39.992,6.714-3.875c.285-.166.267-.441-.038-.619l-7.763-4.482a1.184,1.184,0,0,0-1.071-.021l-6.713,3.875c-.285.166-.269.441.038.618l7.763,4.484A1.189,1.189,0,0,0,206.814,350.611ZM149.234,344.8l-7.763-4.481a1.184,1.184,0,0,0-1.072-.022l-6.713,3.875c-.287.166-.269.441.038.619l7.762,4.482a1.188,1.188,0,0,0,1.071.021l6.714-3.875C149.557,345.251,149.539,344.975,149.234,344.8Zm14.7,4.317-7.763-4.482a1.185,1.185,0,0,0-1.07-.022l-10.329,5.964c-.285.164-.267.441.039.618l7.762,4.482a1.184,1.184,0,0,0,1.071.021l10.328-5.963C164.262,349.568,164.245,349.291,163.939,349.114Zm-26.616-12.982-7.762-4.481a1.18,1.18,0,0,0-1.071-.022l-8.263,4.77c-.285.164-.269.441.039.618l7.762,4.482a1.188,1.188,0,0,0,1.071.022l8.263-4.77C137.647,336.587,137.629,336.309,137.323,336.132Zm6.336-3.657a1.185,1.185,0,0,0,1.07.022l6.714-3.877c.285-.164.269-.441-.038-.618l-7.763-4.482a1.188,1.188,0,0,0-1.072-.022l-6.713,3.877c-.285.164-.269.441.038.618Zm33.952,21.551-7.762-4.482a1.188,1.188,0,0,0-1.071-.022l-12.911,7.455c-.285.164-.269.441.038.618l7.763,4.482a1.185,1.185,0,0,0,1.07.022l12.912-7.455C177.935,354.48,177.917,354.2,177.611,354.026Zm6.443,9.085-7.763-4.481a1.181,1.181,0,0,0-1.07-.022l-8.263,4.77c-.287.164-.269.442.038.618l7.763,4.482a1.185,1.185,0,0,0,1.07.022l8.263-4.77C184.376,363.566,184.358,363.288,184.054,363.111Zm32.559-72.757a1.185,1.185,0,0,0,1.07.022L224.4,286.5c.285-.164.269-.44-.038-.616L216.6,281.4a1.188,1.188,0,0,0-1.072-.022l-6.713,3.877c-.285.166-.269.441.038.618Zm-19.625,11.33a1.184,1.184,0,0,0,1.072.022l6.713-3.877c.285-.164.269-.44-.038-.618l-7.763-4.481a1.181,1.181,0,0,0-1.07-.022l-6.714,3.875c-.285.166-.267.441.038.619ZM153.47,326.81a1.185,1.185,0,0,0,1.07.022l6.714-3.877c.285-.164.269-.441-.038-.618l-7.763-4.482a1.188,1.188,0,0,0-1.072-.022l-6.713,3.877c-.285.164-.269.441.038.618ZM206.8,296.02a1.184,1.184,0,0,0,1.072.022l6.714-3.875c.285-.166.267-.443-.039-.619l-7.762-4.482a1.188,1.188,0,0,0-1.071-.021L199,290.919c-.285.164-.269.441.038.619Zm-19.624,11.331a1.188,1.188,0,0,0,1.071.021l6.713-3.875c.285-.164.269-.443-.038-.619L187.16,298.4a1.184,1.184,0,0,0-1.072-.022l-6.713,3.875c-.285.166-.269.443.038.619Zm2.27,56.49a1.184,1.184,0,0,0-1.072-.022l-10.328,5.963c-.285.164-.267.443.039.619l7.762,4.481a1.184,1.184,0,0,0,1.071.022l10.328-5.963c.285-.164.269-.441-.038-.618ZM173.1,315.48a1.181,1.181,0,0,0,1.07.021l6.714-3.875c.285-.164.267-.441-.039-.618l-7.762-4.482a1.188,1.188,0,0,0-1.071-.022l-6.713,3.877c-.287.164-.269.441.038.618Zm-9.813,5.665a1.188,1.188,0,0,0,1.072.022l6.713-3.877c.285-.164.269-.441-.038-.618l-7.763-4.482a1.185,1.185,0,0,0-1.07-.022l-6.714,3.877c-.285.164-.269.441.039.618ZM371.23,258.887a1.188,1.188,0,0,0-1.071-.022l-16.526,9.542c-.285.164-.269.441.038.618l7.765,4.482a1.185,1.185,0,0,0,1.07.022l16.526-9.542c.285-.164.269-.441-.039-.618ZM349.54,271.41a1.188,1.188,0,0,0-1.071-.022l-6.714,3.877c-.285.164-.267.441.039.618l7.762,4.482a1.188,1.188,0,0,0,1.071.022l6.714-3.877c.285-.164.267-.441-.039-.618ZM216.627,344.946l6.713-3.875c.285-.166.269-.443-.038-.619l-7.763-4.482a1.181,1.181,0,0,0-1.07-.021l-6.714,3.875c-.285.164-.269.441.038.618l7.763,4.482A1.188,1.188,0,0,0,216.627,344.946ZM329.915,282.74a1.188,1.188,0,0,0-1.071-.022l-6.713,3.877c-.285.166-.269.441.038.618l7.763,4.482a1.185,1.185,0,0,0,1.07.022l6.714-3.877c.285-.164.269-.441-.038-.618Zm51.127-29.517a1.188,1.188,0,0,0-1.072-.022l-6.713,3.877c-.285.164-.269.441.038.618l7.763,4.482a1.185,1.185,0,0,0,1.07.022l6.714-3.877c.285-.164.269-.441-.038-.618Zm17.575-1.183-18.853-10.886a1.188,1.188,0,0,0-1.071-.022l-6.714,3.877c-.285.164-.267.443.039.618l18.853,10.886a1.188,1.188,0,0,0,1.071.022l6.713-3.877C398.94,252.493,398.924,252.216,398.618,252.04ZM293.248,303.91a1.181,1.181,0,0,0-1.07-.021l-8.263,4.77c-.285.164-.269.441.038.618l7.763,4.482a1.184,1.184,0,0,0,1.071.021l8.262-4.77c.285-.164.269-.441-.038-.618ZM318.037,289.6a1.181,1.181,0,0,0-1.07-.021l-10.329,5.963c-.285.164-.267.441.038.618l7.763,4.482a1.188,1.188,0,0,0,1.072.022l10.328-5.963c.285-.166.269-.441-.038-.619Zm-47.512,27.432a1.188,1.188,0,0,0-1.071-.022l-55.257,31.9c-.285.164-.269.441.038.618L222,354.011a1.185,1.185,0,0,0,1.07.022l55.258-31.9c.285-.164.269-.441-.038-.618ZM212.17,350.721a1.188,1.188,0,0,0-1.071-.022l-8.263,4.77c-.285.166-.269.443.038.619l7.763,4.482a1.181,1.181,0,0,0,1.07.021l8.264-4.77c.284-.164.267-.441-.039-.618Zm69.718-40.252a1.188,1.188,0,0,0-1.072-.022l-8.263,4.77c-.285.166-.269.443.038.619l7.763,4.481a1.184,1.184,0,0,0,1.072.024l8.263-4.772c.285-.164.267-.441-.039-.618Zm-81.08,46.812a1.188,1.188,0,0,0-1.071-.022l-8.263,4.77c-.285.166-.267.443.039.619l7.762,4.482a1.188,1.188,0,0,0,1.071.022l8.263-4.772c.285-.164.269-.441-.038-.618Zm103.8-59.93a1.177,1.177,0,0,0-1.07-.022l-8.264,4.77c-.284.164-.267.441.039.618l7.763,4.482a1.185,1.185,0,0,0,1.07.022l8.263-4.772c.285-.164.269-.441-.038-.618Zm35.117-20.276a1.185,1.185,0,0,0-1.07-.022l-6.714,3.877c-.285.164-.269.441.039.618l7.762,4.482a1.188,1.188,0,0,0,1.071.022l6.713-3.875c.285-.166.269-.443-.038-.619Zm21.5-15.615,6.714-3.875c.285-.166.269-.443-.038-.619l-7.763-4.481a1.184,1.184,0,0,0-1.071-.022l-6.713,3.875c-.285.164-.269.443.038.619l7.763,4.481A1.181,1.181,0,0,0,361.227,261.46Zm-43.87-.282,6.714-3.875c.285-.166.267-.443-.038-.619L316.27,252.2a1.179,1.179,0,0,0-1.071-.022l-6.713,3.875c-.287.166-.269.441.038.618l7.762,4.482A1.188,1.188,0,0,0,317.357,261.178Zm-22.233,38.448L314.749,288.3c.285-.164.267-.441-.039-.618l-7.762-4.482a1.188,1.188,0,0,0-1.071-.022L286.252,294.5c-.285.164-.267.441.039.618l7.762,4.481A1.184,1.184,0,0,0,295.124,299.626ZM350.345,267.1a1.181,1.181,0,0,0,1.07.021l6.714-3.875c.285-.164.269-.441-.039-.618l-7.763-4.484a1.189,1.189,0,0,0-1.07-.021L342.542,262c-.284.164-.267.441.039.618Zm-10.019-6.382,6.714-3.875c.284-.166.267-.443-.039-.618l-7.763-4.482a1.181,1.181,0,0,0-1.07-.022l-6.714,3.875c-.285.166-.269.441.038.618l7.763,4.482A1.188,1.188,0,0,0,340.326,260.723Zm-55.013,44.568,6.713-3.877c.285-.164.269-.441-.038-.618l-7.763-4.482a1.185,1.185,0,0,0-1.07-.022l-6.714,3.877c-.285.164-.269.441.039.618l7.762,4.482A1.188,1.188,0,0,0,285.312,305.291Zm43.341-25.664a1.188,1.188,0,0,0,1.071.022l6.714-3.877c.285-.164.267-.441-.039-.618l-7.762-4.482a1.188,1.188,0,0,0-1.071-.022l-6.714,3.875c-.285.166-.267.443.039.619Zm-92.4,53.989,6.713-3.877c.285-.164.269-.441-.038-.618l-7.763-4.482a1.188,1.188,0,0,0-1.072-.022l-6.713,3.877c-.285.164-.269.441.038.618l7.763,4.482A1.188,1.188,0,0,0,236.252,333.616Zm9.812-5.665,6.713-3.877c.285-.164.269-.441-.038-.618l-7.763-4.482a1.181,1.181,0,0,0-1.07-.021l-6.714,3.875c-.285.164-.269.441.038.618l7.763,4.482A1.184,1.184,0,0,0,246.064,327.951Zm-19.625,11.33,6.714-3.877c.285-.164.267-.441-.039-.618l-7.762-4.482a1.184,1.184,0,0,0-1.072-.021l-6.714,3.875c-.285.164-.267.441.039.618l7.762,4.484A1.192,1.192,0,0,0,226.439,339.281Zm39.249-22.66,6.714-3.875c.285-.166.269-.443-.039-.619l-7.762-4.482a1.188,1.188,0,0,0-1.071-.022l-6.714,3.877c-.284.164-.267.441.039.618l7.762,4.482A1.188,1.188,0,0,0,265.687,316.621Zm-9.812,5.664,6.713-3.875c.285-.164.269-.441-.038-.618l-7.763-4.482a1.188,1.188,0,0,0-1.071-.022L247,317.164c-.285.164-.269.441.039.618l7.763,4.482A1.181,1.181,0,0,0,255.876,322.285ZM275.5,310.956l6.714-3.877c.285-.164.269-.441-.038-.618l-7.763-4.482a1.188,1.188,0,0,0-1.071-.022l-6.713,3.877c-.285.164-.269.441.038.618l7.763,4.482A1.185,1.185,0,0,0,275.5,310.956ZM320.39,227.15a1.188,1.188,0,0,0,1.072.022l6.713-3.877c.285-.166.269-.441-.038-.618l-2.066-1.194a1.188,1.188,0,0,0-1.071-.022l-6.714,3.877c-.284.164-.267.441.039.618Zm-48.278,31.161a1.18,1.18,0,0,0,1.072.022l6.713-3.875c.285-.164.269-.441-.038-.618l-7.763-4.482a1.181,1.181,0,0,0-1.07-.022l-6.714,3.875c-.285.166-.269.443.038.619Zm19.625-11.329a1.185,1.185,0,0,0,1.07.021l6.714-3.875c.285-.166.267-.441-.038-.619l-7.765-4.482a1.181,1.181,0,0,0-1.07-.021l-6.714,3.875c-.284.166-.267.443.039.618ZM260.131,265.23a1.181,1.181,0,0,0,1.07.021l6.714-3.875c.285-.164.269-.441-.039-.618l-7.762-4.482a1.188,1.188,0,0,0-1.072-.022l-6.713,3.877c-.285.164-.269.441.038.618Zm21.793-12.582a1.188,1.188,0,0,0,1.072.022l6.714-3.877c.284-.164.267-.443-.039-.618l-7.763-4.482a1.185,1.185,0,0,0-1.07-.022l-6.714,3.875c-.285.166-.269.443.038.619ZM240.506,276.56a1.184,1.184,0,0,0,1.072.021l6.713-3.875c.285-.164.269-.441-.038-.618l-7.763-4.482a1.185,1.185,0,0,0-1.07-.022L232.7,271.46c-.285.164-.267.441.039.618Zm9.812-5.665a1.188,1.188,0,0,0,1.071.022l6.714-3.877c.285-.164.267-.441-.039-.618l-7.762-4.482a1.188,1.188,0,0,0-1.071-.022l-6.713,3.875c-.287.166-.269.443.038.619Zm50.448-32.415a1.188,1.188,0,0,0,1.072.022l6.714-3.877c.285-.164.267-.441-.039-.618l-2.066-1.194a1.185,1.185,0,0,0-1.07-.022l-6.714,3.877c-.285.164-.269.441.038.618Zm29.437-17a1.184,1.184,0,0,0,1.072.022l6.714-3.875c.285-.166.267-.441-.039-.619l-2.066-1.193a1.181,1.181,0,0,0-1.07-.021l-6.714,3.875c-.285.164-.269.441.038.618ZM346.51,230.9a1.188,1.188,0,0,0,1.071.021l6.714-3.875c.285-.166.267-.441-.038-.618l-7.763-4.482a1.179,1.179,0,0,0-1.071-.022l-6.714,3.877c-.285.164-.267.441.039.616ZM371.04,255.8l6.713-3.877c.285-.163.269-.44-.038-.616l-7.763-4.482a1.185,1.185,0,0,0-1.07-.022l-6.714,3.875c-.285.166-.269.441.039.618l7.762,4.484A1.184,1.184,0,0,0,371.04,255.8Zm-60.461-22.981a1.177,1.177,0,0,0,1.07.022l6.714-3.875c.285-.164.269-.441-.039-.619l-2.066-1.193a1.181,1.181,0,0,0-1.07-.021L308.473,231c-.284.164-.269.441.039.618Zm-79.885,49.411a1.185,1.185,0,0,0,1.07.022l6.714-3.877c.285-.164.269-.441-.038-.618l-7.763-4.482a1.188,1.188,0,0,0-1.071-.022l-6.713,3.877c-.285.164-.269.441.038.618Z" transform="translate(-50.142 39.909)"/><path class="g" d="M231.245,316.832,297.5,278.581a7.994,7.994,0,0,1,7.23,0l37.991,21.934c2,1.152,2,3.021,0,4.175L276.465,342.94a8,8,0,0,1-7.23,0l-37.989-21.934C229.249,319.853,229.249,317.984,231.245,316.832Z" transform="translate(-7.18 64.199)"/></g><g transform="translate(311.663 220.007)"><path class="l" d="M353.053,176.193a.014.014,0,0,1,.014-.014l-.083-.056-11.31-6.515c-.654-.292-1.614-.014-2.769.863-10.526,8.056-24.671,10.552-36.236,6.873a27.474,27.474,0,0,1-2.118-2.194c-.07-.083-.139-.167-.209-.237h-.014a4.444,4.444,0,0,0-1.169-.96l-.195-.111-11.324-6.5c-1.294-.612-2.463,0-3.242,1.92-10.938,27.177-34.246,54.716-49.79,61.6a8.792,8.792,0,0,0-3.061,2.282,6.52,6.52,0,0,0-1.725,4.453l2.24,61.019c0,17.631,7.445,36.25,22.627,45.309l11.714,6.766.209.111a41.214,41.214,0,0,0,20.762,5.274c1.628,0,3.284-.07,5-.237a16.762,16.762,0,0,0,8.85-4.425c33.968-35.081,50.485-82.56,50.485-108.833l2.24-63.83C354,177.376,353.666,176.527,353.053,176.193Z" transform="translate(-229.818 -167.108)"/><path class="k" d="M350.762,176.924l-2.24,63.83c0,26.272-16.518,73.752-50.485,108.833a16.762,16.762,0,0,1-8.85,4.425c-1.712.167-3.368.237-5,.237a41.214,41.214,0,0,1-20.762-5.274l-.209-.111-.4-.25c-15.182-9.059-22.627-27.678-22.627-45.309l-2.24-61.019a6.52,6.52,0,0,1,1.726-4.453,8.792,8.792,0,0,1,3.061-2.282c15.544-6.888,38.852-34.427,49.79-61.6.779-1.92,1.962-2.547,3.256-1.934h0l.195.111a4.445,4.445,0,0,1,1.169.96h.014c.07.07.139.153.209.237,11.605,13.512,34.427,13.5,49.664,1.837,1.155-.877,2.115-1.155,2.769-.863l.083.056a.014.014,0,0,0-.014.014C350.483,174.7,350.817,175.546,350.762,176.924Z" transform="translate(-226.635 -165.278)"/><g transform="translate(0.966)"><path class="m" d="M332.482,175.447c-.655-.292-1.614-.014-2.769.863-14.347,10.979-35.43,11.633-47.521.362,11.564,3.688,25.687,1.183,36.207-6.874,1.155-.877,2.115-1.155,2.769-.863Z" transform="translate(-210.277 -166.438)"/><path class="m" d="M298.7,173.836c-1.294-.612-2.478.014-3.256,1.934-10.939,27.177-34.247,54.716-49.791,61.6a8.8,8.8,0,0,0-3.061,2.282,7.359,7.359,0,0,0-.779,1.071l-11.3-6.526a7.817,7.817,0,0,1,.764-1.058,6.028,6.028,0,0,1,.5-.515l.014-.014c.068-.056.124-.125.195-.195a2.31,2.31,0,0,0,.195-.181,8.365,8.365,0,0,1,2.157-1.378c15.544-6.888,38.852-34.427,49.788-61.6.781-1.92,1.95-2.533,3.242-1.92Z" transform="translate(-230.512 -167.109)"/><path class="l" d="M231.434,214.224a1.1,1.1,0,0,1,.195-.181c-.071.07-.127.139-.195.195C231.434,214.238,231.42,214.224,231.434,214.224Z" transform="translate(-230.154 -148.732)"/><path class="n" d="M231.629,214.043c-.071.07-.127.139-.195.195,0,0-.014-.014,0-.014A1.1,1.1,0,0,1,231.629,214.043Z" transform="translate(-230.154 -148.732)"/></g><path class="o" d="M266.615,331.921l-.21-.1-11.717-6.777c-15.18-9.059-22.625-27.678-22.625-45.309l-2.24-61.019a6.036,6.036,0,0,1,.96-3.4l11.3,6.526a6.111,6.111,0,0,0-.945,3.381l2.239,61.019c0,17.631,7.446,36.25,22.628,45.309l.4.25Z" transform="translate(-229.817 -148.231)"/><g transform="translate(57.94 77.409)"><path class="h" d="M290.278,272.873l-18.085,10.442L275,250.6c-2.164-1.144-3.542-3.958-3.542-8,0-7.2,4.379-15.571,9.783-18.691s9.781.192,9.781,7.4a24.584,24.584,0,0,1-3.542,12.088Z" transform="translate(-271.455 -222.737)"/><path class="f" d="M290.071,261.427,273.69,251.97l-1.7,19.9Z" transform="translate(-271.247 -211.29)"/><path class="f" d="M280.832,223.91c-3.536,2.04-6.622,6.332-8.342,11.07l14.582,8.419v0a24.588,24.588,0,0,0,3.542-12.088C290.613,224.1,286.234,220.792,280.832,223.91Z" transform="translate(-271.05 -222.737)"/></g></g><g transform="translate(153.166 512.688)"><path class="l" d="M115.918,400.8v5.44c-.022,6.391,4.19,12.787,12.635,17.663,12.72,7.345,31.4,9.135,47.045,5.389l14.529,8.388,11.163-2.523,7.619,4.4.416,9.208,4.1,2.37,10.309.906,7.409,4.133v5.19l9.3,5.367h23.642l8.475-4.89v-5.49l-75.614-38.166c3.482-3.695,5.229-7.791,5.236-11.887v-5.5c-1.137-5.307-5.559-8.046-12.619-12.122-16.847-9.727-44.163-9.727-61.011,0C120.979,393.05,116.682,395.081,115.918,400.8Zm23.16-6.354c4.772-2.755,12.51-2.755,17.283,0s4.773,7.223,0,9.979-12.51,2.755-17.283,0S134.3,397.2,139.078,394.445Z" transform="translate(-115.918 -375.892)"/><path class="p" d="M115.918,400.8v5.44c-.022,6.391,4.19,12.787,12.635,17.663,12.72,7.345,31.4,9.135,47.045,5.389l14.529,8.388,11.163-2.523,7.619,4.4.416,9.208,4.1,2.37,10.309.906,7.409,4.133v5.19l9.3,5.367h23.642l8.475-4.89v-5.49l-75.614-38.166c3.482-3.695,5.229-7.791,5.236-11.887v-5.5c-1.137-5.307-5.559-8.046-12.619-12.122-16.847-9.727-44.163-9.727-61.011,0C120.979,393.05,116.682,395.081,115.918,400.8Zm23.16-6.354c4.772-2.755,12.51-2.755,17.283,0s4.773,7.223,0,9.979-12.51,2.755-17.283,0S134.3,397.2,139.078,394.445Z" transform="translate(-115.918 -375.892)"/><path class="k" d="M128.553,419.956c12.72,7.343,31.4,9.134,47.045,5.389l14.529,8.388,11.163-2.524,7.619,4.4.416,9.209,4.1,2.37,10.309.906,8.038,4.484-.629,4.84,9.3,5.367h23.642l8.475-4.89-75.614-43.657c8.9-9.447,6.461-21.513-7.382-29.5-16.847-9.727-44.163-9.727-61.011,0S111.706,410.229,128.553,419.956ZM139.078,390.5c4.772-2.757,12.51-2.757,17.283,0s4.773,7.222,0,9.979-12.51,2.755-17.283,0S134.3,393.255,139.078,390.5Z" transform="translate(-115.918 -377.436)"/><path class="q" d="M157.714,421.127c-10.694,0-20.68-2.363-28.115-6.654-6.511-3.761-10.246-8.672-10.246-13.474s3.735-9.713,10.246-13.473c7.435-4.292,17.421-6.654,28.115-6.654s20.68,2.363,28.115,6.654c6.511,3.76,10.246,8.672,10.246,13.473s-3.735,9.713-10.246,13.474C178.394,418.764,168.409,421.127,157.714,421.127Zm0-38.344c-10.364,0-20.009,2.272-27.159,6.4-5.9,3.409-9.29,7.718-9.29,11.817s3.387,8.408,9.29,11.818c7.15,4.126,16.795,6.4,27.159,6.4s20.01-2.272,27.16-6.4c5.9-3.411,9.289-7.718,9.289-11.818s-3.386-8.408-9.29-11.817C177.724,385.055,168.079,382.783,157.714,382.783Z" transform="translate(-114.573 -376.092)"/><path class="r" d="M135.762,412.095v5.488a73.163,73.163,0,0,0,32.067-.23v-5.488A73.162,73.162,0,0,1,135.762,412.095Z" transform="translate(-108.148 -363.956)"/><path class="r" d="M169.247,418.6v5.49l11.163-2.524v-5.49Z" transform="translate(-95.037 -362.306)"/><path class="s" d="M182.744,419.24v5.49l.416,9.209v-5.49Z" transform="translate(-89.752 -361.068)"/><path class="r" d="M185.992,427.561v5.49l10.309.906v-5.49Z" transform="translate(-88.48 -357.811)"/><rect class="r" width="23.642" height="5.49" transform="translate(124.526 85.347)"/><path class="p" d="M230.87,435.255v5.49l-8.474,4.89v-5.49L226.109,438v2.369l2.05-1.183v-2.394Z" transform="translate(-74.227 -354.798)"/><path class="r" d="M227.114,436.36l-2.05,1.208v2.369l2.05-1.183Z" transform="translate(-73.182 -354.365)"/><path class="n" d="M248.356,448.625v2.394l-77.545-44.775,2.051-1.208Z" transform="translate(-94.424 -366.63)"/><path class="n" d="M172.862,405.036v2.395l-2.051-1.186Z" transform="translate(-94.424 -366.63)"/></g><g transform="translate(444.011 284.105)"><g transform="translate(100.739 53.338)"><path class="t" d="M421.274,303.072c.975-36.244-1.93-44.93-11.579-51.571l-3.738,21s4.4,24.749,3.924,32.991c-.415,7.24-1.12,16.3-2.832,22.153a4.421,4.421,0,0,1-1.919,2.484c-2.459,1.536-3.45,3.114-5.3,5.051-1.449,1.517-2.683,1.9-2.492,2.378a2.383,2.383,0,0,0,3.054,1.081,16.7,16.7,0,0,0,3.487-1.891,22.15,22.15,0,0,1-3.571,6.137c-3.445,4.223-3.6,6.819,3.359,6.88,4.358.039,7.837-2.651,11.117-12.255a78.339,78.339,0,0,0,3.064-10.786C419.517,317.221,421.117,308.905,421.274,303.072Z" transform="translate(-397.32 -251.501)"/></g><path class="l" d="M400.379,249.574c4.6-.668,10.867.3,14.91,7.53s5.035,19.675,5.5,32.047c0,0-8.032,6.717-17.668,3.415Z" transform="translate(-295.383 -198.987)"/><path class="u" d="M400.379,249.574c4.6-.668,10.867.3,14.91,7.53s5.035,19.675,5.5,32.047c0,0-8.032,6.717-17.668,3.415Z" transform="translate(-295.383 -198.987)"/><g transform="translate(53.164)"><g transform="translate(0 112.65)"><g transform="translate(44.361 124.281)"><path class="g" d="M416.032,396.433c.731.277.916,1.67,1.026,4.44.085,2.1.533,5.754-1.922,6.485s-6.05.358-7.624-1.618c-1.963-2.466-3.291-4.635-6.094-7.644-2.431-2.611-5.061-5.047-6.042-8.707-.886-3.308-.149-4.742,2.108-5.7,3.1-1.322,7.978,3,10.409,3.679C409.987,387.95,415.3,396.156,416.032,396.433Z" transform="translate(-395.011 -383.435)"/></g><g transform="translate(55.895 133.483)"><path class="t" d="M412.787,391.28v3.4s-3.537,2.718-8.594.232c-.149-.327-.893-4.865-.893-4.865Z" transform="translate(-403.299 -390.048)"/></g><g transform="translate(0 156.879)"><path class="g" d="M400.973,406.861s.975,2.957,1.5,5.544c.417,2.055,1.016,5.492.3,7.038s-3.529,2.545-7.883,2.512c-2.819-.021-7.215,1.894-10.224,3.572-3.107,1.735-9.571,2.425-12.858,2.039-3.874-.454-7.887-2.7-8.513-4.305s.2-3.27,9.334-7.159c.084-.036,12.692-4.136,17.109-9.01Z" transform="translate(-363.132 -406.861)"/></g><g transform="translate(26.599 153.202)"><path class="t" d="M393.488,404.219s-.013,2.523,0,3.966-1.691,3.592-6.1,3.433c-3.1-.11-5.259-.943-5.136-3.493v-3.676Z" transform="translate(-382.246 -404.219)"/></g><g transform="translate(14.065)"><path class="f" d="M426.767,383.708A92.442,92.442,0,0,0,422.751,366s1.215-15.282,1.8-29.771c.629-15.651-.033-35.322.264-39.226,0,0-50.5-10.218-51.4,7.873s1.994,64.143,2.591,72.09,1.97,14.976,3.612,27.857c1.621,12.713,6.163,42.736,6.163,42.736,5.769,3.118,11.237-.23,11.237-.23s3.554-36.173,3.181-45.345a78.368,78.368,0,0,0-3.479-20.016s.959-14.916,1.8-27.892,1.741-19.207,1.937-24.852l1.087-.539s1.108,22.384,1.7,30.333,1.862,15.567,4.161,30.329c1.994,12.806,7.935,39.9,7.935,39.9,5.769,3.118,9.212-.409,9.212-.409S428.325,394.819,426.767,383.708Z" transform="translate(-373.239 -294.124)"/></g><g transform="translate(41.284 23.616)"><path class="g" d="M392.8,322.577s12.251-6.037,18.382-11.482c0,0-5.693,8.022-13.165,11.578,0,0-2.659,27.807-2.645,27.256l-1.535-27.394Z" transform="translate(-392.799 -311.095)"/></g></g><g transform="translate(30.381 41.574)"><path class="t" d="M384.964,246.33l2.988,16.447,14.857-1.085-3.12-18.644Z" transform="translate(-384.964 -243.047)"/></g><g transform="translate(14.097 50.586)"><path class="l" d="M423.079,257.954c-1.471-4.472-7.143-9.339-12.822-8.285a167.68,167.68,0,0,0-24.861,6.209c-5.2,1.856-9.933,6.348-10.363,23.446,0,0-1.741,39.857-1.771,47.564,13.051,5.165,26.626,5.005,34.128,3.366,15.62-3.412,17.5-9.891,17.5-9.891s.2-28.662-.266-41.039C424.229,268.807,424.09,261.024,423.079,257.954Z" transform="translate(-373.262 -249.524)"/></g><g transform="translate(14.097 50.586)"><path class="k" d="M423.079,257.954c-1.471-4.472-7.143-9.339-12.822-8.285a167.68,167.68,0,0,0-24.861,6.209c-5.2,1.856-9.933,6.348-10.363,23.446,0,0-1.741,39.857-1.771,47.564,13.051,5.165,26.626,5.005,34.128,3.366,15.62-3.412,17.5-9.891,17.5-9.891s.2-28.662-.266-41.039C424.229,268.807,424.09,261.024,423.079,257.954Z" transform="translate(-373.262 -249.524)"/></g><g transform="translate(15.57 7.295)"><g transform="translate(0 17.556)"><path class="v" d="M377.669,231.03s-3.768,6.006-3.31,6.578,3.34,1.031,3.34,1.031Z" transform="translate(-374.32 -231.03)"/></g><g transform="translate(3.198)"><path class="t" d="M387.231,219.352c-7.855,1.844-10.057,5.364-10.519,17.92-.482,13.119.949,17.208,2.709,18.933,1.19,1.165,7.651,1.234,10.889.263,4.051-1.216,13.19-4.688,17.358-11.376,4.9-7.869,6-18.407.466-22.6C400.351,216.6,390.428,218.6,387.231,219.352Z" transform="translate(-376.618 -218.413)"/></g></g><g transform="translate(17.393)"><path class="g" d="M377.185,224.671c2.306,3.948,7.31,5.835,7.31,5.835,1.507,1.716.676,8.409,3.327,9.471,0,0,1.14-4.87,5.235-4.354,4.123.52,4.8,5.746,2.278,8.985s-4.959,2.075-4.959,2.075.284,6.92,3.439,10.771c0,0,3.516,1.051,9.9-.462,3.927-.93,9.4-5.988,11.624-11.263,4.713-11.16,4.837-21.11-2.284-23.929-.878-5.075-4.937-7.267-9.531-8.213-9.887-2.039-16.26,4.132-23.871,3.6C375.3,216.875,374.485,220.047,377.185,224.671Z" transform="translate(-375.631 -213.171)"/><g transform="translate(37.175 6.14)"><path class="g" d="M402.758,221.771l4.66-2.89a2.742,2.742,0,0,0-4.66,2.89Z" transform="translate(-402.346 -217.584)"/></g></g></g><path class="t" d="M341.5,283.716c2.444,1.085,31.226,22.358,35.714,19.881s27.512-29.377,27.512-29.377a18.582,18.582,0,0,0,0-20.179s-7.384,1.364-11.244,7.2-20.546,26.766-20.546,26.766q-6.183-3.093-12.322-6.273c-3.373-1.745-6.752-3.49-10.054-5.367a12.488,12.488,0,0,1-2.6-1.6c-1.627-1.61-1.348-5.5-1.318-7.623a28.9,28.9,0,0,1,.143-2.967c.141-1.209.372-4.172-1.806-3.231a2.705,2.705,0,0,0-1.039.874,4.9,4.9,0,0,0-.781,1.485c-.41,1.28-.278,2.681-.655,3.973a1.117,1.117,0,0,1-.267.515.952.952,0,0,1-.687.212c-3.173-.1-6.174-4.542-7.631-6.9a6.46,6.46,0,0,0-2.406-2.744c-1.737-.81-3.821.351-4.939,1.908a10.039,10.039,0,0,0-1.572,6.988,13.9,13.9,0,0,0,4.136,8.764A42.547,42.547,0,0,0,341.5,283.716Z" transform="translate(-324.927 -197.169)"/><path class="l" d="M391.729,253.417c-3.176.365-8.449.6-13.616,6.457-6.042,6.842-14,18.012-14,18.012a17.636,17.636,0,0,0,13.921,13.106s10.892-11.159,13.921-17.3S395.468,257.564,391.729,253.417Z" transform="translate(-309.582 -197.413)"/><path class="u" d="M391.729,253.417c-3.176.365-8.449.6-13.616,6.457-6.042,6.842-14,18.012-14,18.012a17.636,17.636,0,0,0,13.921,13.106s10.892-11.159,13.921-17.3S395.468,257.564,391.729,253.417Z" transform="translate(-309.582 -197.413)"/></g></g></svg>