<svg xmlns="http://www.w3.org/2000/svg" xmlns:xlink="http://www.w3.org/1999/xlink" width="643.435" height="646.443" viewBox="0 0 643.435 646.443"><defs><style>.a{fill:#ffebc5;}.b{fill:#ffa400;}.c{fill:#f8bc4e;}.d{fill:#f6d18d;}.e{fill:#fff;}.f{fill:#ffa90d;}.g{fill:url(#a);}.h{fill:url(#b);}.i{fill:#d58900;}.j{fill:url(#c);}.k{fill:url(#d);}.l{fill:url(#e);}.m{fill:url(#f);}.n{fill:#ababab;}.o{fill:#fcdfaa;}.p{fill:#ffd485;}</style><linearGradient id="a" x1="42.82" y1="0.238" x2="41.985" y2="0.678" gradientUnits="objectBoundingBox"><stop offset="0" stop-color="#febbba"/><stop offset="1" stop-color="#ff928e"/></linearGradient><linearGradient id="b" x1="50.657" y1="0.225" x2="54.061" y2="-1.251" xlink:href="#a"/><linearGradient id="c" x1="-33.122" y1="0.5" x2="-32.122" y2="0.5" xlink:href="#a"/><linearGradient id="d" x1="-146.439" y1="-6.405" x2="-146.255" y2="-7.485" xlink:href="#a"/><linearGradient id="e" x1="-120.802" y1="-50.878" x2="-119.235" y2="-53.153" xlink:href="#a"/><linearGradient id="f" x1="-495.244" y1="-166.248" x2="-488.837" y2="-173.694" xlink:href="#a"/></defs><g transform="translate(-462.428 -441.692)"><path class="a" d="M1031.28,997.206c-13.212,13.91-25.714,22.88-35.591,29.967-116.1,83.306-253.486,59.023-282.684,53.092-43.116-8.757-126.457-25.684-186.712-96.542-91.16-107.2-76.965-276.1-6.255-387.586,12.934-20.393,81.255-133.581,220.117-151.733,84.037-10.985,182,11.171,252.939,70.6C1142,639.767,1131.4,891.8,1031.28,997.206Z" transform="translate(0 0)"/><g transform="translate(463.314 705.515)"><path class="b" d="M579.109,2061.7a7.577,7.577,0,0,0,7.559,7.552h408.76a7.577,7.577,0,0,0,7.559-7.552l3.4-234.9c0-4.153-4.893-12.262-13.862-11.653L593.041,1804.81a19.049,19.049,0,0,0-19.546,19.483Z" transform="translate(-545.949 -1804.803)"/><path class="c" d="M607.938,2080.38a7.172,7.172,0,0,0,7.151,7.151h391.847a7.172,7.172,0,0,0,7.151-7.151l3.21-213.247c-.378-12.833-11.629-17.445-18.449-17.172l-382.87-10.272a13.387,13.387,0,0,0-13.735,13.7Z" transform="translate(-567.315 -1830.726)"/><rect class="b" width="481.911" height="20.639" rx="5.654" transform="translate(481.911 283.95) rotate(180)"/><path class="d" d="M1016.978,1888.736l.32-21.367c-.378-12.833-11.629-17.514-18.449-17.242l-382.87-10.306a13.36,13.36,0,0,0-9.8,3.885,13.669,13.669,0,0,0-3.931,9.926l.878,35.1Z" transform="translate(-567.315 -1830.825)"/><g transform="translate(304.56 20.019)"><path class="e" d="M2186.419,2326.337h-.016a1.047,1.047,0,0,1-1.032-1.064l.253-17.293a1.048,1.048,0,0,1,1.047-1.033h.011a1.048,1.048,0,0,1,1.038,1.064l-.253,17.294A1.048,1.048,0,0,1,2186.419,2326.337Z" transform="translate(-2048.44 -2198.01)"/><path class="b" d="M1790.775,1968.7h-.016a1.048,1.048,0,0,1-1.032-1.064l.972-66.237c-.018-3.934-1.212-7.076-3.55-9.315-4.363-4.18-11.291-3.967-11.582-3.953l-122.374-3.282a1.047,1.047,0,0,1-1.02-1.075,1,1,0,0,1,1.076-1.019l122.3,3.281c.761-.045,8.136-.172,13.048,4.534,2.763,2.648,4.175,6.3,4.2,10.839l-.973,66.257A1.048,1.048,0,0,1,1790.775,1968.7Z" transform="translate(-1652.174 -1882.755)"/></g><rect class="d" width="233.942" height="98.22" rx="37.631" transform="translate(52.289 68.328)"/><rect class="d" width="139.889" height="98.22" rx="26.959" transform="translate(298.434 68.328)"/><rect class="d" width="386.034" height="66.67" rx="33.138" transform="translate(52.289 180.835)"/><ellipse class="b" cx="4.917" cy="4.917" rx="4.917" ry="4.917" transform="translate(49.668 36.825) rotate(-80.783)"/><circle class="b" cx="4.917" cy="4.917" r="4.917" transform="translate(64.745 33.233) rotate(-45)"/><circle class="b" cx="4.917" cy="4.917" r="4.917" transform="translate(80.042 34.144) rotate(-45)"/></g><g transform="translate(527.688 779.765)"><ellipse class="e" cx="67.482" cy="68.345" rx="67.482" ry="68.345" transform="translate(0 0)"/><path class="f" d="M872.781,2280.987a8.332,8.332,0,0,1-7.159-4.1l-25.387-42.8a8.521,8.521,0,0,1,2.859-11.609,8.294,8.294,0,0,1,11.462,2.9l17.623,29.71,23.3-46.344a8.3,8.3,0,0,1,11.234-3.7,8.512,8.512,0,0,1,3.655,11.378l-30.138,59.952a8.347,8.347,0,0,1-7.152,4.616Q872.928,2280.987,872.781,2280.987Z" transform="translate(-807.676 -2175.815)"/></g><g transform="translate(644.007 806.242)"><path class="g" d="M1186.131,2769.789c.1-.04,56.078-98.063,63.641-107.288a5.864,5.864,0,0,1,5.235-2.1l15.623,1.862,18.354,39.706-30.577-17.808c3.026,20.926-36.255,52.023-49.726,63.371a3.094,3.094,0,0,0-.245,4.507l5.378,5.63a61.764,61.764,0,0,1-30.518,17.355Z" transform="translate(-1179.842 -2541.366)"/><path d="M1200.707,3027.435s3.433,1.109,4.595,4.166a3.5,3.5,0,0,1-1.315,4.031c-5.652,4.049-24.3,17.123-32.9,19.683a.973.973,0,0,1-1.218-1.146c.441-2,1.87-5.99,6.471-11.833l-.413.835a1.2,1.2,0,0,0,1.655,1.577C1183.337,3041.5,1195.058,3034.39,1200.707,3027.435Z" transform="translate(-1169.847 -2814.176)"/><path class="h" d="M1274.26,2825.928c.094-.06,8.492-20.293,8.586-20.354,7.7-46.88,26.486-87.029,32.026-97.594a5.865,5.865,0,0,1,4.7-3.12l15.677-1.338,26.01,35.17-33.548-11.251c7.2,19.88-24.976,58.284-35.873,72.122a3.1,3.1,0,0,0,.673,4.463l6.406,4.425a61.769,61.769,0,0,1-26.374,23.172Z" transform="translate(-1246.169 -2573.448)"/><path d="M1289.244,3102.974s3.586.391,5.343,3.15a3.5,3.5,0,0,1-.473,4.213c-4.715,5.109-20.328,21.685-28.235,25.934a.973.973,0,0,1-1.425-.876c.028-2.046.619-6.244,3.943-12.9l-.235.9a1.2,1.2,0,0,0,1.94,1.21C1275.079,3120.263,1285.119,3110.928,1289.244,3102.974Z" transform="translate(-1240.158 -2870.316)"/><g transform="translate(62.687 122.046)"><path class="i" d="M1513.718,2672.881s14.182,21.093,15.345,30.715-3.922,12.949-18.765,14.176c-44.171,3.651-65.946-9.587-65.946-9.587-3.022-19.266-5.172-24.167-30.408-34.642,0,0,31.919,2.534,38.343.041S1513.718,2672.881,1513.718,2672.881Z" transform="translate(-1413.945 -2672.259)"/></g><g transform="translate(79.569 0)"><path d="M1582.246,2201.514s9.877-11.687,20.378,2.652c1.9,2.6,9.207.455,11.885,5.89a6.9,6.9,0,0,0,7.446,3.833c7.663-1.414,20.188-1.532,26.371,10.475,4.72,9.165,1.076,14.53-3.643,17.588a7.736,7.736,0,0,0-2.607,10.365c2.01,3.413,2.388,8.035-2.8,13.6-11.631,12.466-34.654-7.91-34.654-7.91l-18.28-43.2Z" transform="translate(-1555.906 -2197.024)"/><path class="i" d="M1568.307,2442.535s-16.515-15.725-24.644-26.141a22.1,22.1,0,0,1-3.742-19.889c3.711-12.5,10.307-25.455,10.909-27.47.922-3.089,19.439-2.961,19.439-2.961s36.438,23.648,50.755,63.708l-16.078,5.006s-9.514-15.962-18.914-26.109c0,0,16.266,21.488,16.839,30.284Z" transform="translate(-1523.768 -2322.66)"/><path class="j" d="M1530.587,2633.106l12.409-13.5,14.331,3.859s16.708,2.589,26.271,0l9.563-2.588,21.609-6.728,3.394,9.592a5.775,5.775,0,0,1-2.11,6.635,38.182,38.182,0,0,1-5.458,3.4c-2.846,1.245-65.554.394-65.554.394Z" transform="translate(-1517.514 -2507.026)"/><path class="k" d="M1579.6,2274.195l12.445,23.143c-.822,5.052-13.545,5.194-15.511,2.178a2.984,2.984,0,0,1-.391-1.021l-7.445-15.463c-.32-1.508,3.814-6.588,5.174-7.313l4.947-2.633C1580.724,2272.072,1572.776,2271.992,1579.6,2274.195Z" transform="translate(-1545.824 -2253.045)"/><g transform="translate(0 0.678)"><path class="l" d="M1512.718,2241.925s-1.4,7.819,4.741,17.76,12.265,9.492,15.374,5.947,6.833-9.45,5.139-19.365S1514.841,2231.954,1512.718,2241.925Z" transform="translate(-1504.131 -2226.884)"/><path d="M1506.082,2220.125s-9.951-13.071-17.591-1.677l.129,3.936s-9.935-.465-8.858-9.621,9.188-15.413,20.432-12.284,17.814,6.691,19.084,14.5-5.1,6.531-5.1,6.531-2.435-5.387-5.375-5.755-1.878,3.893-1.878,3.893Z" transform="translate(-1479.681 -2199.665)"/><path class="m" d="M1584.331,2254.137s-5.155-6.689-.463-8.077,4.517,6.554,4.211,9.509Z" transform="translate(-1555.646 -2234.026)"/></g></g><g transform="translate(21.402 79.602)"><path class="b" d="M1517.592,2693.819c-.043,0-.087,0-.131,0l-57.076-.063a2.554,2.554,0,1,1,.006-5.109l57.076.062a2.555,2.555,0,0,1,.125,5.106Z" transform="translate(-1405.277 -2641.998)"/><path class="b" d="M1256.982,2506.988h47.534a9.059,9.059,0,0,1,8.194,5.2l21.975,46.6h-59.071a5.506,5.506,0,0,1-5.121-3.482l-17.04-43.118A3.8,3.8,0,0,1,1256.982,2506.988Z" transform="translate(-1253.183 -2506.988)"/><path class="n" d="M1376.416,2586.241c1.03,3.2.269,6.308-1.7,6.942s-4.4-1.447-5.43-4.647-.269-6.309,1.7-6.942S1375.385,2583.041,1376.416,2586.241Z" transform="translate(-1339.128 -2562.35)"/></g></g><g transform="translate(936.653 601.131)"><path class="f" d="M2456.7,1402.431c.765-3.258-3.819-5.425-6.626-3.148-28.5,23.113-96.988,92.328-79.921,213.284,21.414,151.758-15.2,207.134-60.766,240.911,0,0,62.583-15.884,101.958-72.074C2508.018,1643.444,2443.088,1460.37,2456.7,1402.431Z" transform="translate(-2309.387 -1398.341)"/><path class="o" d="M2493.459,1595.8c-3.566,16.894-6.744,33.841-9.2,50.863q-3.838,25.512-5.862,51.171c-1.266,17.1-2.16,34.215-2.211,51.339-.14,17.123.572,34.232,1.356,51.407.673,17.169,1.464,34.462.207,51.878-1.236,17.38-4.894,34.912-12.154,51.347-1.815,4.1-3.723,8.179-5.891,12.125-2.084,3.982-4.373,7.885-6.742,11.752a185.514,185.514,0,0,1-16.168,22.241,203.97,203.97,0,0,1-42.573,37.258,4.262,4.262,0,0,1-5.39-.613,3.02,3.02,0,0,1,.62-4.593l.011-.008c3.808-2.674,7.575-5.383,11.19-8.227,1.834-1.4,3.593-2.863,5.382-4.3,1.724-1.492,3.517-2.927,5.186-4.464a185.017,185.017,0,0,0,46.453-63.73,150.088,150.088,0,0,0,8.06-24.2,165.183,165.183,0,0,0,3.888-25.064c1.37-16.9.752-34.026.221-51.2-.5-17.177-.874-34.441-.421-51.691q.3-12.937,1.137-25.855c.25-4.306.6-8.608.934-12.909q.578-6.448,1.252-12.886,2.775-25.75,7.385-51.3c3.173-17.006,6.867-33.933,11.311-50.709a1.045,1.045,0,0,1,1.235-.67A.9.9,0,0,1,2493.459,1595.8Z" transform="translate(-2367.839 -1544.309)"/></g><g transform="translate(919.681 661.444)"><path class="p" d="M2332.65,1988.891a7.735,7.735,0,0,0,12.66-2.156c12.506-27.609,40.806-108.868-5.932-202.483-39.469-79.054-53.357-125.67-58.2-147.27a4.85,4.85,0,0,0-9.171-.892C2251.165,1683.336,2196.127,1844.041,2332.65,1988.891Z" transform="translate(-2243.298 -1633.194)"/><path class="o" d="M2461.234,2279.492a2.146,2.146,0,0,0,2.525-2.144c-.021-1.343-2.634-135.542-52.547-247.94a2.145,2.145,0,0,0-3.921,1.741c49.55,111.579,52.158,244.931,52.178,246.265A2.145,2.145,0,0,0,2461.234,2279.492Z" transform="translate(-2365.039 -1926.709)"/></g></g></svg>