<svg xmlns="http://www.w3.org/2000/svg" width="88.102" height="100" viewBox="0 0 88.102 100">
  <g id="save-money" transform="translate(-0.36)">
    <path id="Path_13570" data-name="Path 13570" d="M193.179,171.436a1.561,1.561,0,0,0-.562-.019,3.729,3.729,0,0,1-3.3-3.7,1.64,1.64,0,1,0-3.281,0,7.017,7.017,0,0,0,5.16,6.757v1.64a1.64,1.64,0,0,0,3.281,0v-1.541a7,7,0,0,0-1.435-13.86,3.724,3.724,0,1,1,3.724-3.724,1.64,1.64,0,1,0,3.281,0,7.017,7.017,0,0,0-5.57-6.857V148.64a1.64,1.64,0,0,0-3.281,0v1.593a7,7,0,0,0,1.845,13.761,3.722,3.722,0,0,1,.136,7.441Zm0,0" transform="translate(-147.607 -116.86)" fill="#fbb616"/>
    <path id="Path_13571" data-name="Path 13571" d="M104.2,130.278a23.786,23.786,0,1,0,23.786-23.786A23.786,23.786,0,0,0,104.2,130.278Zm23.786-20.505a20.505,20.505,0,1,1-20.505,20.505A20.5,20.5,0,0,1,127.981,109.773Zm0,0" transform="translate(-82.545 -84.657)" fill="#231f20"/>
    <path id="Path_13572" data-name="Path 13572" d="M77.308,332.891l-12.849,6.071a10.466,10.466,0,0,0-8.922-5.506l-11.862-.326a12.529,12.529,0,0,1-5.391-1.392l-1.207-.626a21.29,21.29,0,0,0-19.72.021l.075-2.734a1.64,1.64,0,0,0-1.595-1.685L2.83,326.357a1.64,1.64,0,0,0-1.684,1.595L.36,356.495a1.64,1.64,0,0,0,1.595,1.685l13.007.358h.045a1.64,1.64,0,0,0,1.64-1.6l.038-1.366,3.379-1.809a5.8,5.8,0,0,1,4.326-.473l20.178,5.663c.035.01.07.018.107.026a21.6,21.6,0,0,0,4.435.457,21.885,21.885,0,0,0,9.143-2,1.52,1.52,0,0,0,.2-.112L87.712,338.41a1.641,1.641,0,0,0,.537-2.185,8.286,8.286,0,0,0-10.942-3.333ZM3.685,354.946l.7-25.264,9.727.267-.7,25.265Zm53.089-.429A18.6,18.6,0,0,1,45.4,355.786l-20.124-5.649a9.07,9.07,0,0,0-6.761.739l-1.727.925.462-16.8a18.031,18.031,0,0,1,18.317-.977l1.207.626a15.843,15.843,0,0,0,6.809,1.759l11.863.326a7.2,7.2,0,0,1,6.837,5.733l-17.669-.488a1.641,1.641,0,1,0-.091,3.28l19.5.537h.046a1.64,1.64,0,0,0,1.639-1.6,10.411,10.411,0,0,0-.159-2.128l13.179-6.227.038-.018a5.012,5.012,0,0,1,5.667.794Zm0,0" transform="translate(0 -259.441)" fill="#231f20"/>
    <path id="Path_13573" data-name="Path 13573" d="M215.484,17.223V1.64a1.64,1.64,0,0,0-3.281,0V17.223a1.64,1.64,0,0,0,3.281,0Zm0,0" transform="translate(-168.408)" fill="#231f20"/>
    <path id="Path_13574" data-name="Path 13574" d="M275.484,49.022V41.64a1.64,1.64,0,1,0-3.281,0v7.381a1.64,1.64,0,1,0,3.281,0Zm0,0" transform="translate(-216.105 -31.799)" fill="#231f20"/>
    <path id="Path_13575" data-name="Path 13575" d="M155.484,49.022V41.64a1.64,1.64,0,0,0-3.281,0v7.381a1.64,1.64,0,0,0,3.281,0Zm0,0" transform="translate(-120.71 -31.799)" fill="#231f20"/>
  </g>
</svg>
