<svg xmlns="http://www.w3.org/2000/svg" width="100" height="78.912" viewBox="0 0 100 78.912">
  <g id="scooter" transform="translate(0.001 -0.499)">
    <rect id="Rectangle_5225" data-name="Rectangle 5225" width="22" height="22" transform="translate(18.999 3.94)" fill="#fbb616"/>
    <path id="Path_13567" data-name="Path 13567" d="M210.484,384.5a1.954,1.954,0,1,0,1.381.572A1.961,1.961,0,0,0,210.484,384.5Zm0,0" transform="translate(-167.803 -309.004)" fill="#231f20"/>
    <path id="Path_13568" data-name="Path 13568" d="M81.583,42.709l-1.4-6.341a5.829,5.829,0,0,0,.715.045H84.8a1.953,1.953,0,0,0,1.953-1.953V26.647A1.953,1.953,0,0,0,84.8,24.694H80.894a5.824,5.824,0,0,0-3.1.891l-.761-3.44a4.883,4.883,0,0,0,4.218-4.831V13.787A4.882,4.882,0,0,0,76.372,8.91H64.843a4.885,4.885,0,0,0-4.55,3.125H55.663a5.078,5.078,0,1,0,0,10.156H65.717v3.936a1.953,1.953,0,1,0,3.906,0V22.191h3.418l4.9,22.152L68.665,60.87a5.736,5.736,0,0,1-4.991,2.916H40.51A16.433,16.433,0,0,0,24.218,49.327a16.249,16.249,0,0,0-10.127,3.5l-.011.008A16.313,16.313,0,0,0,7.922,63.786H3.91A25.891,25.891,0,0,1,29.766,38.4H40.5a1.986,1.986,0,0,1,1.984,1.984V57.926a1.953,1.953,0,0,0,1.953,1.953H57.951A11.648,11.648,0,0,0,69.6,48.244l.01-6.49A1.953,1.953,0,0,0,67.658,39.8h0a1.953,1.953,0,0,0-1.953,1.95l-.01,6.49a7.742,7.742,0,0,1-7.742,7.734H46.386V40.386a5.874,5.874,0,0,0-1.727-4.163,6.63,6.63,0,0,0-.439-9.364,3.873,3.873,0,0,0,.414-1.739V4.405A3.911,3.911,0,0,0,40.728.5H20.013a3.911,3.911,0,0,0-3.906,3.906V15.733H7.829a1.953,1.953,0,1,0,0,3.906h8.277v5.481H1.952a1.953,1.953,0,1,0,0,3.906H14.946a6.63,6.63,0,0,0,2.319,8.225A29.806,29.806,0,0,0,0,64.263v1.476a1.953,1.953,0,0,0,1.953,1.953H12.929a1.989,1.989,0,0,0-.039.391A11.275,11.275,0,0,0,15.666,75.5H7.829a1.953,1.953,0,0,0,0,3.906H23.992c.076,0,.15.006.226.006A11.341,11.341,0,0,0,35.546,68.083a1.989,1.989,0,0,0-.039-.391H63.673a9.65,9.65,0,0,0,7.751-3.912H73.9A11.295,11.295,0,0,0,75.822,75.5H50.493a1.953,1.953,0,1,0,0,3.906H84.148c.076,0,.15.006.226.006A11.323,11.323,0,0,0,94.851,63.78h3.2A1.953,1.953,0,0,0,100,61.827,19.156,19.156,0,0,0,81.582,42.709ZM80.894,28.6h1.953v3.906H80.894a1.953,1.953,0,1,1,0-3.906ZM32.5,4.405v4.3h-4.3v-4.3Zm-12.482,0h4.275v6.254a1.953,1.953,0,0,0,1.953,1.953h8.208A1.953,1.953,0,0,0,36.4,10.659V4.405h4.327l0,20.715H20.013ZM21,34.5a2.734,2.734,0,0,1,0-5.469h18.75a2.734,2.734,0,0,1,0,5.469ZM31.64,68.083a7.429,7.429,0,0,1-7.346,7.42c-.025,0-.05,0-.076,0h-.225a7.429,7.429,0,0,1-7.2-7.416,1.989,1.989,0,0,0-.039-.391H31.679a1.989,1.989,0,0,0-.039.391Zm-19.777-4.3a12.425,12.425,0,0,1,4.63-7.883l.018-.014a12.377,12.377,0,0,1,7.707-2.657A12.526,12.526,0,0,1,36.571,63.787ZM54.491,17.113a1.173,1.173,0,0,1,1.172-1.172h4.3v1.373a4.9,4.9,0,0,0,.1.97h-4.4a1.173,1.173,0,0,1-1.172-1.172ZM67.67,18.285H64.843a.971.971,0,0,1-.97-.97V13.787a.971.971,0,0,1,.97-.97h11.53a.971.971,0,0,1,.97.97v3.528a.971.971,0,0,1-.97.97ZM91.8,68.083A7.429,7.429,0,0,1,84.45,75.5c-.025,0-.05,0-.076,0h-.225A7.42,7.42,0,0,1,78.327,63.78H90.421a7.41,7.41,0,0,1,1.375,4.3Zm-.441-8.209H73.7l7.448-13.266A15.248,15.248,0,0,1,95.968,59.874Zm0,0" fill="#231f20"/>
    <path id="Path_13569" data-name="Path 13569" d="M338.41,165.621a1.953,1.953,0,0,0,0-3.906H338.4a1.953,1.953,0,1,0,.007,3.906Zm0,0" transform="translate(-270.741 -129.729)" fill="#231f20"/>
  </g>
</svg>
