<svg xmlns="http://www.w3.org/2000/svg" width="99.11" height="62.694" viewBox="0 0 99.11 62.694">
  <g id="shipped" transform="translate(0 -94.062)">
    <g id="Group_7667" data-name="Group 7667" transform="translate(0 94.062)">
      <g id="Group_7666" data-name="Group 7666" transform="translate(0 0)">
        <path id="Path_13559" data-name="Path 13559" d="M92.172,120.64l-2.567-10.266a1.552,1.552,0,0,0,1.228-1.517V107.2a6.525,6.525,0,0,0-6.518-6.518H72.626V97.269a3.211,3.211,0,0,0-3.207-3.207H9.828a3.211,3.211,0,0,0-3.207,3.207l.272,37.253a1.552,1.552,0,0,0,3.1,0L9.725,97.269a.1.1,0,0,1,.1-.1h59.59a.1.1,0,0,1,.1.1v28.14a1.552,1.552,0,0,0,3.1,0V123.65H90.94a5.078,5.078,0,0,1,4.822,3.517H90.937a1.552,1.552,0,0,0-1.552,1.552v3.311a4.868,4.868,0,0,0,4.862,4.862h1.759v6.828H91.949a9.825,9.825,0,0,0-18.576,0h-.747V132.03a1.552,1.552,0,0,0-3.1,0v11.69h-32.2a9.825,9.825,0,0,0-18.576,0H9.828a.1.1,0,0,1-.1-.1V140.2h6.725a1.552,1.552,0,0,0,0-3.1H1.552a1.552,1.552,0,0,0,0,3.1H6.621v3.414a3.211,3.211,0,0,0,3.207,3.207h8.383c0,.034,0,.069,0,.1a9.828,9.828,0,1,0,19.656,0c0-.035,0-.069,0-.1H72.835c0,.034,0,.069,0,.1a9.828,9.828,0,1,0,19.656,0c0-.035,0-.069,0-.1h5.072a1.552,1.552,0,0,0,1.552-1.552V128.72A8.185,8.185,0,0,0,92.172,120.64ZM72.626,103.787h11.69A3.418,3.418,0,0,1,87.73,107.2v.1h-15.1Zm0,16.76V110.408H86.415l2.535,10.139ZM28.036,153.653a6.725,6.725,0,1,1,6.725-6.725A6.732,6.732,0,0,1,28.036,153.653Zm54.625,0a6.725,6.725,0,1,1,6.725-6.725A6.732,6.732,0,0,1,82.661,153.653Zm13.346-19.864H94.248a1.761,1.761,0,0,1-1.759-1.759v-1.759h3.517v3.518Z" transform="translate(0 -94.062)" fill="#231f20"/>
      </g>
    </g>
    <g id="Group_7669" data-name="Group 7669" transform="translate(24.829 143.721)">
      <g id="Group_7668" data-name="Group 7668" transform="translate(0 0)">
        <path id="Path_13560" data-name="Path 13560" d="M131.474,350.6a3.207,3.207,0,1,0,3.207,3.207A3.211,3.211,0,0,0,131.474,350.6Z" transform="translate(-128.267 -350.597)" fill="#231f20"/>
      </g>
    </g>
    <g id="Group_7671" data-name="Group 7671" transform="translate(79.454 143.721)">
      <g id="Group_7670" data-name="Group 7670" transform="translate(0 0)">
        <path id="Path_13561" data-name="Path 13561" d="M413.662,350.6a3.207,3.207,0,1,0,3.207,3.207A3.211,3.211,0,0,0,413.662,350.6Z" transform="translate(-410.455 -350.597)" fill="#231f20"/>
      </g>
    </g>
    <g id="Group_7673" data-name="Group 7673" transform="translate(39.727 137.1)">
      <g id="Group_7672" data-name="Group 7672" transform="translate(0 0)">
        <path id="Path_13562" data-name="Path 13562" d="M229.953,316.393H206.779a1.552,1.552,0,0,0,0,3.1h23.174a1.552,1.552,0,1,0,0-3.1Z" transform="translate(-205.227 -316.393)" fill="#231f20"/>
      </g>
    </g>
    <g id="Group_7676" data-name="Group 7676" transform="translate(33.856 102.549)">
      <g id="Group_7644" data-name="Group 7644" transform="translate(0 0)">
        <path id="Path_13554" data-name="Path 13554" d="M406.88,215.716a1.948,1.948,0,0,0-.388-.388l-7.756-5.817-2.327,3.1,3.1,2.327H384v3.878h15.512l-3.1,2.327,2.327,3.1,7.756-5.817A1.939,1.939,0,0,0,406.88,215.716Z" transform="translate(-384 -209.511)" fill="#fbb616"/>
      </g>
    </g>
    <g id="Group_7677" data-name="Group 7677" transform="translate(22.242 118.195)">
      <g id="Group_7644-2" data-name="Group 7644" transform="translate(0 0)">
        <path id="Path_13554-2" data-name="Path 13554" d="M384.388,215.716a1.949,1.949,0,0,1,.388-.388l7.756-5.817,2.327,3.1-3.1,2.327h15.512v3.878H391.756l3.1,2.327-2.327,3.1-7.756-5.817A1.939,1.939,0,0,1,384.388,215.716Z" transform="translate(-384 -209.511)" fill="#fbb616"/>
      </g>
    </g>
  </g>
</svg>
