<svg xmlns="http://www.w3.org/2000/svg" width="503.805" height="457.285" viewBox="0 0 503.805 457.285"><defs><style>.a{fill:#ffa400;}.b,.c,.e,.q{fill:#f6d18d;}.b{opacity:0.42;}.c{opacity:0.34;}.d{fill:#ffa90d;}.f{fill:#ffc150;}.g{fill:#fff;}.h{fill:#d3d0cf;}.i{fill:#f2f2f2;}.j{fill:#b8b8b8;}.k{fill:#1a1818;}.l{fill:#ffc2b0;}.m{fill:#ea9c92;}.n{fill:#010101;}.o{fill:#e69400;}.p{fill:#5793ce;}.q{opacity:0.46;}</style></defs><g transform="translate(0)"><g transform="translate(70.59 406.227)"><rect class="a" width="3.531" height="10.256" transform="translate(10.812 2.546) rotate(104.376)"/><rect class="a" width="3.531" height="10.256" transform="translate(15.88 7.49) rotate(104.373)"/><rect class="a" width="3.531" height="10.256" transform="translate(20.948 12.434) rotate(104.373)"/><rect class="a" width="3.531" height="10.256" transform="matrix(-0.248, 0.969, -0.969, -0.248, 26.016, 17.378)"/></g><g transform="translate(0 3.29)"><path class="b" d="M324.964,137.13l93.244,54.708c23.641-7.255,53.761-5.012,73.636,6.65,24.183,14.188,24.024,36.918-.355,50.767a74.393,74.393,0,0,1-18.343,7.194,97.855,97.855,0,0,1-14.578,2.515c-19.393,1.887-40.089-1.571-55.01-10.324-18.071-10.6-22.544-25.974-13.477-38.846l-12.867-7.549.365-8.169-13.54-.094.342-7.649-13.542-.094.342-7.651-13.542-.094.342-7.649-13.54-.094.34-7.651-14.456-.1-4.411-2.587-4.868-20.085ZM456.178,241.808c6.3,3.693,16.545,3.765,22.891.161s6.389-9.523.093-13.216-16.545-3.765-22.891-.161S449.884,238.115,456.178,241.808Z" transform="translate(-34.534 -39.231)"/><path class="c" d="M520.672,400.685l125.754-72.3c8.467-4.888,7.4-13.427-2.372-19.071L522,238.843c-9.777-5.645-24.566-6.258-33.033-1.369l-125.754,72.3c-8.467,4.888-7.4,13.425,2.37,19.071l122.054,70.467C497.416,404.961,512.2,405.573,520.672,400.685Z" transform="translate(-281.251 43.28)"/><g transform="translate(0 146.611)"><path class="d" d="M525.043,296.88l21.742-12.552-80.16-46.28c-3.786-2.187-3.786-5.743,0-7.928l81.89-47.28a15.192,15.192,0,0,1,13.733,0l80.16,46.28,21.74-12.552-80.16-46.28c-15.773-9.107-41.44-9.107-57.214,0l-81.891,47.28c-15.773,9.107-15.773,23.926,0,33.033Z" transform="translate(-433.054 -163.457)"/><g transform="translate(56.908 23.053)"><path class="e" d="M340.918,291.813c0-11.623,7.066-25.125,15.785-30.159L501.936,177.8c3.9-2.254,7.471-2.413,10.226-.873l.007-.006L685.58,277.692,517.887,404.053,347.046,304.9a7.909,7.909,0,0,1-1.51-.875l0,0h0C342.683,301.858,340.918,297.619,340.918,291.813Z" transform="translate(-340.918 -175.917)"/><path class="a" d="M596.614,358.514,425.772,259.357a7.909,7.909,0,0,1-1.51-.875l0,0h0c-2.851-2.161-4.616-6.4-4.616-12.206a38.723,38.723,0,0,1,4.254-16.8L618.643,341.913Z" transform="translate(-419.644 -130.377)"/><path class="f" d="M354.406,357.72l145.236-83.852c8.717-5.033,15.783-18.536,15.783-30.157h0c0-11.623-7.066-16.965-15.783-11.932L354.406,315.63c-8.717,5.033-15.783,18.534-15.783,30.157h0C338.623,357.411,345.689,362.752,354.406,357.72Z" transform="translate(-166.516 -130.031)"/></g><path class="g" d="M405.9,292.348l17.461-10.073a7.534,7.534,0,0,0,3.147-6.012h0c0-2.316-1.41-3.38-3.147-2.378L405.9,283.959a7.535,7.535,0,0,0-3.145,6.011h0C402.753,292.287,404.161,293.351,405.9,292.348Z" transform="translate(-139.348 -69.886)"/></g><g transform="translate(261.209)"><path class="a" d="M479.484,156.549,449.645,173.5,419.2,155.635l.081-7.771.26.152.024-.549-13.541-.094.08-7.651-13.279-.093.08-7.652-13.279-.093.08-7.652-13.279-.093.08-7.652-14.2-.1L347.9,113.8l-4.868-20.085.081-7.771,2.349,7.447,21.489-2.871Z" transform="translate(-343.029 -82.751)"/><g transform="translate(0.081)"><g transform="translate(0)"><path class="e" d="M449.6,167.2l-30.447-17.864.365-8.167-13.541-.095.342-7.649-13.541-.095.342-7.65-13.541-.095.342-7.649-13.541-.095.342-7.649-14.458-.1-4.411-2.588-4.868-20.085,23.919-3.2L479.44,150.246Z" transform="translate(-342.985 -84.219)"/></g><g transform="translate(86.339 53.125)"><path class="a" d="M342.985,130.888a41.953,41.953,0,0,1,13.831-11.923,71.381,71.381,0,0,1,14.293-6.034l21.992,12.9-29.839,16.95Z" transform="translate(-342.985 -112.931)"/></g><g transform="translate(0 2.659)"><path class="d" d="M363.992,89.563l-.817-3.371,4.013-.536,95.084,55.788-5.008,2.844Z" transform="translate(-363.176 -85.656)"/></g><g transform="translate(205.288 87.265)"><path class="h" d="M307.079,142.429l.329-11.047-3.536,7.461Z" transform="translate(-303.872 -131.383)"/></g><path class="a" d="M410.006,179.087c-24.379,13.849-63.747,13.575-87.93-.614-12.125-7.114-18.127-16.375-18.029-25.585l0,.006.339-11.7,1.987,2.215c2.8-5.769,8.15-11.2,16.062-15.7,24.381-13.849,63.747-13.573,87.93.614S434.387,165.24,410.006,179.087ZM374.79,158.425c-6.346,3.606-6.389,9.523-.092,13.216s16.545,3.765,22.891.161,6.389-9.523.093-13.216S381.136,154.819,374.79,158.425Z" transform="translate(-219.894 -55.923)"/><g transform="translate(84.479 50.534)"><path class="i" d="M409.832,173.121c-24.381,13.849-63.749,13.573-87.932-.614s-24.022-36.918.357-50.767,63.747-13.573,87.93.616S434.211,159.272,409.832,173.121Zm-35.218-20.662c-6.346,3.6-6.389,9.521-.093,13.216s16.545,3.765,22.891.159,6.389-9.521.093-13.216S380.96,148.853,374.614,152.459Z" transform="translate(-303.867 -111.531)"/></g><path class="f" d="M304.05,163.559c5.364.838,11.3.105,15.52-2.292,4.552-2.587,5.841-6.357,3.9-9.649l11.044-8.757s5.773-6.513,11.488-12.97c8.892,13,4.211,28.309-14.012,38.661-8.039,4.566-17.046,7.16-27.264,8.665Z" transform="translate(-141.875 -45.387)"/><g transform="translate(84.479 50.534)"><path class="e" d="M409.832,173.121a74.249,74.249,0,0,1-18.343,7.194,97.615,97.615,0,0,1-14.578,2.516c-19.392,1.887-40.089-1.571-55.01-10.324-24.183-14.19-24.022-36.918.357-50.767s63.747-13.573,87.93.616S434.211,159.272,409.832,173.121Zm-35.218-20.662c-6.346,3.6-6.389,9.521-.093,13.216s16.545,3.765,22.891.159,6.389-9.521.093-13.216S380.96,148.853,374.614,152.459Z" transform="translate(-303.867 -111.531)"/></g><g transform="translate(91.349 54.493)"><path class="a" d="M418.192,146.147c-1.186-7.075-6.432-13.988-15.772-19.468-21.517-12.624-56.542-12.868-78.232-.548-10.78,6.124-16.225,14.2-16.349,22.321-1.545-9.224,3.815-18.726,16.09-25.7,21.691-12.323,56.718-12.077,78.232.546C412.985,129.65,418.316,137.925,418.192,146.147Z" transform="translate(-307.58 -113.67)"/></g><g transform="translate(160.553 85.054)"><path class="a" d="M341.738,232.585a24.392,24.392,0,0,0,12.2-3.147c8.737-4.957,13.6-14.92,13.686-28.055.172-23.955-16.5-53.31-37.168-65.436-11.322-6.644-22.368-7.573-31.1-2.609a24.429,24.429,0,0,0-9.044,9.044c-3.031,5.164-4.592,11.56-4.642,19.013-.17,23.955,16.506,53.311,37.172,65.436C329.358,230.655,335.79,232.585,341.738,232.585ZM311.57,138.994c4.389,0,9.307,1.523,14.438,4.535,18.251,10.707,32.979,36.633,32.827,57.795-.067,9.86-3.347,17.13-9.237,20.471s-13.81,2.442-22.314-2.546c-18.253-10.707-32.979-36.633-32.831-57.795.039-5.806,1.227-10.863,3.434-14.623h0a15.272,15.272,0,0,1,13.683-7.838Z" transform="translate(-285.663 -130.188)"/></g></g><path class="e" d="M340.368,149.42l-17.357,4.254-2.492-12.88c6.295,3.693,16.545,3.765,22.891.159Z" transform="translate(-165.304 -36.116)"/><path class="e" d="M401.737,145.83a74.249,74.249,0,0,1-18.343,7.194,97.615,97.615,0,0,1-14.578,2.516c-19.392,1.887-40.089-1.571-55.01-10.324l70.685-1.587Z" transform="translate(-211.213 -33.706)"/><path class="a" d="M326.68,151.459a102.632,102.632,0,0,0,15.352-3.956v10.846a84.2,84.2,0,0,1-15.165,3.887C310.683,164.374,326.68,151.459,326.68,151.459Z" transform="translate(-162.274 -30.412)"/></g><path class="f" d="M314.46,150.254a72,72,0,0,0,10-3.689c9.455-4.426-2.505,11.971-2.505,11.971s-3.221,1.284-7.494,2.594Z" transform="translate(122.428 -31.854)"/></g><path class="f" d="M392.819,251.317l30.927,19.946,15.055-2.445-36.773-17.776Z" transform="translate(-133.26 60.912)"/><g transform="translate(195.055 42.298)"><g transform="translate(0)"><path class="f" d="M389.46,306.3s8.907-4.492,14.378,2.2,13.292,22.482,13.535,33.153-8.445,9.949-13.609,7.423-20.247-24.4-21.161-28.692,1.077-10.086,2.529-11.22S389.46,306.3,389.46,306.3Z" transform="translate(-287.565 64.34)"/><path class="j" d="M389.814,305.437l-.413,9.229a5.235,5.235,0,0,0,2.609,4.8,10.265,10.265,0,0,0,6.872,1.068c6.711-1.079,7.308-3,7.79-12.223S389.814,305.437,389.814,305.437Z" transform="translate(-289.863 63.053)"/><g transform="translate(52.882 163.742)"><path class="f" d="M371.836,296.705s8.907-4.492,14.378,2.2,13.292,22.481,13.535,33.151S391.3,342,386.14,339.478s-20.247-24.4-21.161-28.694,1.077-10.084,2.529-11.218S371.836,296.705,371.836,296.705Z" transform="translate(-290.214 -107.557)"/><path class="j" d="M372.19,295.846l-.413,9.229a5.235,5.235,0,0,0,2.609,4.8,10.276,10.276,0,0,0,6.872,1.068c6.711-1.079,7.31-3,7.79-12.223S372.19,295.846,372.19,295.846Z" transform="translate(-292.512 -108.844)"/><path class="k" d="M364.371,211.356c2.637-42.9,46.46,6.311,46.46,6.311l29.993,29.4,27.01,29.671a26.621,26.621,0,0,1,6.709,21.387l-10.926,83.195a8.176,8.176,0,0,1-8.2,7.1,27.6,27.6,0,0,1-4.047-.353c-9.747-1.519-9.027-10.785-9.027-10.785l2-77.812L387.618,265.28S361.735,254.256,364.371,211.356Z" transform="translate(-364.183 -193.799)"/></g><path class="f" d="M380.629,244.326l8.071-2.964c.189,0,13.721,13.089,13.6,17.67l-6.073,1.948-15.246-14.8Z" transform="translate(-269.264 10.384)"/><path class="f" d="M449.86,268.907s-33.708-19.246-37.743-27.315c-1.58-3.16-4.035-6.463,5.8-11.238L462.871,262.4l-1.948,11.033Z" transform="translate(-385.356 1.024)"/><path class="k" d="M381.986,220.3c2.81-42.889,46.46,6.313,46.46,6.313l29.993,29.4,27.01,29.669a26.626,26.626,0,0,1,6.709,21.387l-10.928,83.2a8.174,8.174,0,0,1-8.2,7.1,27.859,27.859,0,0,1-4.047-.353c-9.747-1.519-9.027-10.787-9.027-10.787l2-77.811-56.721-34.193S379.416,259.513,381.986,220.3Z" transform="translate(-361.524 -22.447)"/><path class="a" d="M425.379,139.888C392.154,153.662,392.82,173.3,392.82,173.3s6.509,72,4.287,120.085c-.929,20.1,106.8,21.637,90.735-31.993C468.9,198.162,476,146.971,467.132,139.252S433.973,136.325,425.379,139.888Z" transform="translate(-378.991 -79.954)"/><path class="l" d="M415.438,155.017c1.737,6.746,10.576,10.3,19.74,7.941s15.185-9.743,13.448-16.489-10.576-10.3-19.74-7.939S413.7,148.273,415.438,155.017Z" transform="translate(-379.739 -77.67)"/><path class="g" d="M430.3,166a24.108,24.108,0,0,0,6-.772,22.114,22.114,0,0,0,11.649-7.135c2.868-3.514,3.913-7.523,2.942-11.288-1.95-7.584-11.677-11.662-21.674-9.083a22.118,22.118,0,0,0-11.647,7.136c-2.868,3.516-3.913,7.523-2.942,11.287C416.187,162.182,422.674,166,430.3,166Zm5-25.885c6.171,0,11.331,2.872,12.519,7.482.711,2.761-.115,5.776-2.329,8.489a18.921,18.921,0,0,1-9.977,6.065c-8.3,2.131-16.29-.91-17.807-6.8-.71-2.761.115-5.776,2.329-8.489a18.9,18.9,0,0,1,9.977-6.067A21.306,21.306,0,0,1,435.3,140.11Z" transform="translate(-380.471 -78.398)"/><path class="l" d="M436.76,139.927s-.289,1.332.287,11.86c.181,3.31-11.409,6.4-14.4,3.406s-1.8-6.111-2.516-17.376S436.76,139.927,436.76,139.927Z" transform="translate(-377.051 -81.491)"/><path class="m" d="M420.105,135.744s2.855,10.445,16.922,14.451l-.213-9.494Z" transform="translate(-377.029 -79.418)"/><path class="l" d="M407.681,130.215a25.574,25.574,0,1,0,31.162-18.358A25.575,25.575,0,0,0,407.681,130.215Z" transform="translate(-373.518 -100.425)"/><path class="m" d="M406.764,128.208s14.08,6.032,23.829,6.1,7.6-8.095,7.6-8.095l-28.942-4.183Z" transform="translate(-353.714 -91.078)"/><path class="n" d="M452.029,144.021s-12.265-5.207-23.026-3.036a11.272,11.272,0,0,0-6.5,3.865,3.839,3.839,0,0,1-1.969,1.423c-1.908.433-5.031-7.484-8.741-7.664s-6.183,2.444-3.142,7.314,2.013,10.317.612,11.1-16.24-10.585-3.149-36.518,46.345-11.966,51.518-6.709c0,0,5.449,4.746,9.879.522C467.51,114.315,472.478,151.522,452.029,144.021Z" transform="translate(-372.242 -105.302)"/><path class="l" d="M434.692,189.273v19.455a7.931,7.931,0,0,0,2.587,5.858l39.967,36.437-4.541,6.946-52.78-38.28a10.726,10.726,0,0,1-4.372-7.562l-3.567-33.93Z" transform="translate(-402.226 -43.322)"/><path class="a" d="M450.05,150.5s-12.125,18.234-16.641,66.234c0,0,20.712,6.7,32.466,2.9S450.05,150.5,450.05,150.5Z" transform="translate(-433.409 -66.876)"/><path class="o" d="M431.076,162.956s4.748,25.4,5.016,37.344a7.62,7.62,0,0,1-5.016,7.36h0Z" transform="translate(-396.395 -56.281)"/></g><g transform="translate(45.048 193.175)"><path class="a" d="M364.013,247.222l8.833-1.166,57.023-32.922a7.929,7.929,0,0,1,7.133.294l40.406,23.321,5.34-.7v5.318h0a2.083,2.083,0,0,1-1.227,1.872l-64.624,37.31a7.925,7.925,0,0,1-7.131-.3l-44-25.4a2.879,2.879,0,0,1-1.745-2.4h0Z" transform="translate(-364.012 -207.397)"/><path class="f" d="M364.012,221.062l4.052-2.339H412.6l21.959,12.669,5.34-.7V236h0a2.083,2.083,0,0,1-1.227,1.872l-64.624,37.31a6.675,6.675,0,0,1-3.68.688Z" transform="translate(-321.166 -202.039)"/><path class="p" d="M364.012,225.5l2.37-.313v5.318h0a2.083,2.083,0,0,1-1.227,1.872l-1.14.657Z" transform="translate(-247.646 -196.542)"/><path class="e" d="M406.016,253.733a8.284,8.284,0,0,1-6.061-.376V244.31h6.061Z" transform="translate(-353.784 -180.284)"/><path class="g" d="M416.892,277.54l64.624-37.31c1.828-1.056,1.6-2.9-.513-4.119l-44-25.4a7.929,7.929,0,0,0-7.133-.3l-64.624,37.31c-1.828,1.056-1.6,2.9.513,4.119l44,25.4A7.925,7.925,0,0,0,416.892,277.54Z" transform="translate(-364.01 -209.706)"/><path class="q" d="M400.379,265.619,454.113,234.6c1.521-.877,1.33-2.409-.426-3.423l-23.58-13.261a6.59,6.59,0,0,0-5.93-.244l-53.735,31.021c-1.519.879-1.329,2.411.427,3.425l23.58,13.259A6.585,6.585,0,0,0,400.379,265.619Z" transform="translate(-346.404 -203.441)"/></g><path class="l" d="M402.931,210.619l.67,4.459a32.966,32.966,0,0,1-.292,11.433l-.8,3.93a5.525,5.525,0,0,1-4.428,4.341h0a3.048,3.048,0,0,1-3.575-2.661l-1.066-9.533s-2.439,3.2-3.617,3.2,1.317-9.547,3.982-14.95S402.931,210.619,402.931,210.619Z" transform="translate(-287.392 -17.661)"/><path class="l" d="M387.817,177.471l6.935,13.725a26.89,26.89,0,0,1,2.836,10.417l3.012,46.941,9.122-.216,4.141-52.716a19.372,19.372,0,0,0-.235-4.874L408.9,164.016Z" transform="translate(-294.183 -55.379)"/><g transform="translate(95.854 165.223)"><path class="f" d="M365.432,293.967l5.419-7.074,56.982-32.99a7.927,7.927,0,0,0,3.3-6.33l-.048-46.65,3.275-4.278-3.077-1.784,0,.006a2.077,2.077,0,0,0-2.235.128l-64.578,37.39a7.924,7.924,0,0,0-3.3,6.328l.054,50.806a2.879,2.879,0,0,0,1.208,2.709h0Z" transform="translate(-361.167 -194.599)"/><path class="e" d="M403.971,267.216l4.048-2.344,22.222-38.6-.022-25.35,3.275-4.278-3.077-1.784,0,.006a2.077,2.077,0,0,0-2.235.128L363.6,232.385a6.688,6.688,0,0,0-2.433,2.846Z" transform="translate(-360.299 -194.599)"/><path class="a" d="M366.168,198.544l1.453-1.9-3.077-1.784,0,.006A2.077,2.077,0,0,0,362.3,195l-1.138.659Z" transform="translate(-294.426 -194.599)"/><path class="f" d="M398.37,215.244a8.276,8.276,0,0,0-2.7,5.44l6.311,3.643,3.023-5.251Z" transform="translate(-395.655 -177.045)"/><path class="a" d="M363.86,233.348l64.576-37.388c1.828-1.058,3.312.061,3.314,2.5l.055,50.806a7.934,7.934,0,0,1-3.3,6.33l-64.578,37.388c-1.826,1.058-3.31-.061-3.314-2.5l-.054-50.806A7.924,7.924,0,0,1,363.86,233.348Z" transform="translate(-357.482 -193.782)"/></g><path class="l" d="M402.932,224.5l1.034,2.143a14.351,14.351,0,0,0,5.4,5.984l6.415,3.954a6.387,6.387,0,0,0,6.548.152c.072-.043.146-.087.218-.131a3.861,3.861,0,0,0,.546-5.93l-6.7-6.89s3.765,2.885,4.822,1.723c.773-.851-3.652-5.007-7.051-5.142s-6.685-2.807-6.685-2.807Z" transform="translate(-332.452 -9.856)"/><path class="a" d="M391.931,137.295s24.573,26.738,34.485,51.267c0,0-8.4,15.139-28.971,21.078S391.931,137.295,391.931,137.295Z" transform="translate(-304.454 -78.099)"/><path class="o" d="M400.838,193.218l-3.984-38.474,9.384,36.047A53.365,53.365,0,0,1,400.838,193.218Z" transform="translate(-303.22 -63.263)"/><path class="g" d="M418.1,135.212l6.6-1.813s-3.153,4.959-7.754,6.222-5.318-2.631-5.318-2.631Z" transform="translate(-349.031 -81.412)"/></g><path class="a" d="M355.967,119.433a18.5,18.5,0,1,0-18.5-18.5A18.517,18.517,0,0,0,355.967,119.433Zm0-32.955a14.459,14.459,0,1,1-14.458,14.46A14.474,14.474,0,0,1,355.967,86.478Z" transform="translate(33.483 -82.441)"/><path class="a" d="M555.58,186.52a13.116,13.116,0,1,0-13.115-13.115A13.132,13.132,0,0,0,555.58,186.52Zm0-22.194a9.078,9.078,0,1,1-9.077,9.079A9.089,9.089,0,0,1,555.58,164.326Z" transform="translate(-540.04 -16.25)"/><path class="a" d="M330.432,314.937l8.9-18.1-18.1-8.9-8.9,18.1Zm3.5-16.266-5.34,10.865L317.73,304.2l5.34-10.863Z" transform="translate(115.135 92.278)"/><path class="a" d="M472.459,163.265l8.9-18.108-18.1-8.9-8.9,18.107Zm3.5-16.267-5.34,10.865-10.863-5.34,5.338-10.865Z" transform="translate(-289.676 -36.685)"/><rect class="a" width="9.276" height="9.276" transform="matrix(-0.897, -0.441, 0.441, -0.897, 474.112, 309.217)"/></g></svg>